<svg id="svg" version="1.1" xmlns="http://www.w3.org/2000/svg" xmlns:xlink="http://www.w3.org/1999/xlink" width="400" height="400" viewBox="0, 0, 400,400"><g id="svgg"><path id="path0" d="M88.269 52.168 C 87.000 52.246,79.731 52.759,72.115 53.307 C 63.724 53.911,57.178 54.208,55.499 54.060 C 52.900 53.832,52.694 53.872,52.172 54.697 C 50.114 57.947,49.910 93.048,51.918 98.269 C 53.018 101.129,53.267 98.315,53.142 84.423 C 53.035 72.531,53.319 64.708,54.072 58.750 L 54.303 56.923 57.840 56.923 C 59.786 56.923,66.563 56.497,72.900 55.977 C 103.937 53.427,125.270 54.216,126.709 57.967 C 127.134 59.075,127.671 69.810,127.695 77.692 C 127.730 88.905,128.894 98.298,130.028 96.506 C 131.450 94.260,129.760 57.248,128.165 55.710 C 125.442 53.084,104.118 51.190,88.269 52.168 M278.096 59.631 C 274.606 60.137,274.573 60.505,275.373 90.385 C 275.732 103.764,275.939 105.611,276.944 104.396 C 277.418 103.824,277.478 100.644,277.351 82.851 L 277.202 61.978 278.655 61.705 C 279.455 61.555,292.416 61.551,307.458 61.697 C 335.610 61.969,341.070 61.797,344.216 60.538 C 347.249 59.324,345.499 59.153,334.758 59.609 C 327.175 59.932,319.405 59.940,305.577 59.641 C 284.668 59.189,281.154 59.187,278.096 59.631 M346.423 63.365 C 346.334 63.524,346.285 72.394,346.314 83.077 C 346.367 103.027,346.523 105.198,347.942 105.663 C 348.475 105.837,348.473 64.839,347.940 63.750 C 347.605 63.066,346.716 62.841,346.423 63.365 M67.568 67.974 C 67.470 68.137,67.030 69.485,66.589 70.971 C 65.445 74.830,65.303 74.960,61.802 75.353 C 59.050 75.661,58.072 75.938,58.494 76.287 C 58.582 76.360,59.736 77.145,61.058 78.032 C 63.829 79.891,63.782 79.707,62.444 83.384 C 61.054 87.203,61.455 87.450,65.092 85.018 C 68.537 82.714,68.138 82.764,70.128 84.375 C 74.447 87.873,75.490 87.535,73.877 83.161 L 72.727 80.042 75.112 77.936 C 77.910 75.466,77.907 75.458,74.051 75.025 C 70.545 74.632,70.777 74.832,69.422 71.046 C 68.374 68.121,67.927 67.379,67.568 67.974 M115.000 70.667 C 113.202 70.736,106.248 70.918,99.547 71.073 C 87.365 71.354,86.080 71.509,87.478 72.531 C 89.051 73.682,118.738 72.971,120.620 71.738 C 121.836 70.941,121.280 70.352,119.423 70.469 C 118.788 70.509,116.798 70.598,115.000 70.667 M291.795 73.718 C 291.252 74.261,291.579 75.034,292.500 75.385 C 293.601 75.803,293.825 77.384,292.912 78.297 C 291.661 79.548,290.385 78.479,290.385 76.179 C 290.385 74.926,290.059 74.710,289.308 75.462 C 287.477 77.292,290.186 81.289,292.811 80.630 C 293.879 80.362,294.610 81.072,298.997 86.648 L 301.958 90.411 301.171 91.411 C 299.179 93.944,301.221 97.357,304.376 96.765 C 306.996 96.273,308.182 93.139,306.538 91.049 C 305.530 89.767,305.445 90.025,308.009 86.624 C 309.241 84.991,310.639 83.005,311.117 82.212 C 311.747 81.165,312.248 80.769,312.941 80.769 C 316.041 80.769,317.597 77.143,315.310 75.248 C 312.569 72.977,309.326 74.619,309.735 78.070 C 309.979 80.125,309.513 81.066,305.689 86.250 C 303.312 89.472,303.778 89.580,299.895 84.904 C 298.095 82.736,296.259 80.634,295.816 80.233 C 295.161 79.641,295.053 79.226,295.245 78.026 C 295.692 75.233,293.285 72.228,291.795 73.718 M314.609 76.250 C 314.606 76.742,314.482 76.935,314.321 76.698 C 314.166 76.468,313.692 76.084,313.269 75.844 C 312.552 75.438,312.572 75.407,313.558 75.396 C 314.403 75.387,314.614 75.558,314.609 76.250 M317.692 78.086 C 317.692 78.303,319.183 80.942,321.004 83.952 C 324.296 89.391,324.312 89.429,323.696 90.512 C 321.479 94.409,325.519 97.920,328.750 94.904 C 329.792 93.932,329.900 91.946,328.993 90.412 C 328.398 89.404,328.417 89.287,329.429 87.684 C 331.021 85.161,332.692 81.459,332.692 80.453 C 332.692 79.006,331.474 79.595,330.439 81.543 C 329.934 82.492,328.813 84.535,327.947 86.083 C 326.125 89.340,326.601 89.565,323.012 83.752 C 320.023 78.912,317.692 76.430,317.692 78.086 M100.835 78.478 C 88.946 78.741,87.223 78.930,87.828 79.909 C 88.411 80.851,114.499 80.626,117.019 79.657 C 119.051 78.875,118.336 78.070,115.673 78.141 C 114.351 78.176,107.674 78.328,100.835 78.478 M225.661 82.343 C 221.599 83.299,216.681 87.424,215.537 90.834 L 215.192 91.861 212.692 89.952 C 201.820 81.650,187.067 81.257,175.506 88.962 C 163.259 97.124,157.516 106.712,148.322 134.346 C 140.703 157.248,136.970 163.155,127.313 167.588 C 124.261 168.989,118.197 170.767,116.465 170.768 C 115.336 170.769,114.641 171.463,115.337 171.894 C 115.576 172.042,116.438 173.537,117.252 175.216 C 131.699 205.019,163.012 222.060,187.197 213.281 L 189.660 212.387 191.284 213.294 C 201.644 219.085,219.225 214.077,224.073 203.956 C 224.659 202.732,225.176 201.677,225.221 201.611 C 225.267 201.545,227.096 202.389,229.287 203.486 C 242.811 210.260,250.509 220.568,256.555 240.000 C 257.246 242.221,260.017 250.010,262.712 257.308 C 279.002 301.420,279.379 314.600,264.480 319.188 C 248.877 323.992,225.538 320.308,201.654 309.269 C 195.916 306.617,194.585 306.316,195.627 307.906 C 197.449 310.688,204.173 313.928,220.577 319.931 C 232.753 324.387,243.608 326.123,248.846 324.451 C 249.798 324.148,252.658 323.718,255.202 323.497 C 281.390 321.223,283.948 307.002,266.452 260.962 C 264.120 254.827,260.868 245.740,259.225 240.769 C 254.397 226.168,250.716 218.660,245.341 212.449 C 244.107 211.023,243.865 210.534,244.276 210.297 C 255.672 203.728,260.378 198.621,262.203 190.845 L 262.807 188.269 264.486 188.405 C 268.485 188.727,268.013 187.684,263.279 185.735 C 252.222 181.182,249.131 168.124,251.869 137.535 C 253.753 116.487,251.731 104.851,244.497 95.119 C 239.621 88.558,230.591 85.127,222.895 86.911 C 222.055 87.106,221.312 87.209,221.243 87.140 C 220.915 86.813,224.633 84.526,226.296 84.032 C 230.398 82.814,229.849 81.357,225.661 82.343 M98.379 85.748 C 89.792 85.969,88.012 86.262,89.058 87.278 C 90.071 88.264,110.986 87.740,112.608 86.689 C 114.028 85.769,113.230 85.380,110.073 85.453 C 108.447 85.491,103.184 85.623,98.379 85.748 M228.846 89.193 C 228.529 89.371,227.577 89.641,226.731 89.793 C 224.679 90.162,221.662 91.620,219.443 93.314 L 217.634 94.695 216.702 93.819 C 216.189 93.337,215.769 92.843,215.769 92.721 C 215.770 92.243,221.928 89.548,223.699 89.251 C 226.280 88.819,229.580 88.781,228.846 89.193 M327.059 92.006 C 327.647 91.419,327.692 91.448,327.692 92.404 C 327.692 93.370,326.805 94.231,325.808 94.231 C 325.161 94.231,324.552 92.728,324.836 91.832 L 325.100 91.001 325.763 91.820 C 326.379 92.581,326.472 92.594,327.059 92.006 M55.000 100.907 C 55.000 104.198,61.230 105.038,86.998 105.224 L 106.111 105.362 113.553 110.385 C 124.602 117.841,125.502 117.726,123.422 109.126 C 122.745 106.328,122.174 103.952,122.153 103.846 C 122.132 103.740,123.271 103.540,124.684 103.400 C 129.116 102.962,129.013 102.450,124.432 102.143 C 119.382 101.804,119.711 101.332,120.993 107.084 C 121.583 109.737,121.957 112.018,121.822 112.152 C 121.511 112.464,118.645 110.713,113.269 106.926 C 106.731 102.320,108.418 102.692,94.088 102.692 C 81.120 102.692,72.808 102.287,65.577 101.303 C 58.135 100.289,55.000 100.172,55.000 100.907 M320.155 107.296 C 307.034 107.435,300.714 107.635,300.347 107.923 C 300.050 108.155,297.673 110.030,295.064 112.089 C 289.579 116.418,289.807 116.398,290.616 112.490 C 291.493 108.245,291.235 108.135,281.154 108.439 C 274.452 108.642,276.748 110.385,283.717 110.385 C 289.323 110.385,288.941 109.910,287.899 115.577 C 286.517 123.097,286.300 123.084,295.315 116.016 L 302.358 110.494 305.698 110.236 C 307.535 110.094,315.805 109.809,324.075 109.601 C 339.377 109.218,343.520 108.919,345.577 108.051 L 346.731 107.564 345.000 107.272 C 344.048 107.111,342.404 107.005,341.346 107.036 C 340.288 107.067,330.752 107.184,320.155 107.296 M221.271 113.558 C 223.449 115.749,226.539 120.236,226.538 121.208 C 226.538 121.284,225.457 121.360,224.135 121.376 C 218.983 121.440,215.759 123.614,213.442 128.585 C 208.472 139.246,211.273 153.846,218.289 153.846 C 219.331 153.846,219.281 153.759,216.994 151.576 C 214.268 148.974,214.093 148.462,215.932 148.462 C 218.776 148.462,223.387 141.640,222.478 138.777 C 222.001 137.273,220.728 138.106,220.025 140.385 C 217.498 148.568,212.907 147.800,213.123 139.231 C 213.363 129.700,217.446 123.846,223.856 123.846 C 228.600 123.846,229.423 125.724,229.414 136.538 C 229.392 163.460,210.609 187.271,195.114 180.020 C 187.607 176.507,182.579 164.965,184.815 156.379 C 185.554 153.541,185.530 152.729,184.669 151.423 C 181.981 147.346,190.092 127.214,196.644 121.701 C 198.821 119.869,204.383 120.920,208.103 123.867 C 209.717 125.145,210.869 125.232,211.089 124.092 C 211.416 122.394,207.245 119.499,203.275 118.669 C 199.969 117.977,199.996 118.075,202.591 116.262 C 206.743 113.361,210.792 111.637,214.612 111.144 C 218.476 110.645,218.318 110.587,221.271 113.558 M181.994 133.750 C 184.421 136.360,184.427 136.401,183.137 141.428 C 182.496 143.921,181.918 146.391,181.852 146.915 C 181.524 149.500,176.815 142.937,176.305 139.183 C 175.682 134.607,179.447 131.012,181.994 133.750 M198.067 134.063 C 197.501 135.554,197.606 141.741,198.223 143.217 C 200.603 148.915,206.552 146.440,209.238 138.634 C 210.768 134.186,208.645 133.952,206.927 138.379 C 203.842 146.329,199.872 146.112,200.004 138.002 C 200.087 132.856,200.122 133.077,199.221 133.077 C 198.739 133.077,198.300 133.453,198.067 134.063 M179.834 150.178 C 181.669 150.945,182.565 153.010,181.951 155.057 C 180.557 159.711,173.729 158.984,173.181 154.123 C 172.749 150.287,175.786 148.487,179.834 150.178 M202.949 160.641 C 200.934 162.655,207.629 167.629,210.376 166.159 C 211.548 165.531,211.212 164.447,209.804 164.315 C 207.813 164.128,205.815 163.025,205.018 161.675 C 204.298 160.455,203.522 160.067,202.949 160.641 M304.038 198.838 C 274.611 199.051,274.873 199.033,274.408 200.886 C 273.970 202.630,274.400 233.786,274.868 234.253 C 276.144 235.528,276.345 233.284,276.385 217.366 C 276.415 205.100,276.528 201.783,276.922 201.539 C 277.927 200.918,290.637 200.667,308.462 200.916 C 327.767 201.186,335.226 200.904,337.978 199.803 C 340.400 198.833,339.631 198.451,335.458 198.549 C 333.408 198.597,319.269 198.727,304.038 198.838 M342.559 200.289 C 342.331 200.657,342.120 213.370,342.144 225.192 C 342.158 231.730,342.260 233.074,342.827 234.147 C 343.934 236.241,344.319 235.286,344.173 230.819 C 344.099 228.571,344.166 221.452,344.322 215.000 C 344.619 202.750,344.466 200.285,343.395 200.079 C 343.048 200.012,342.672 200.107,342.559 200.289 M290.803 211.995 C 289.640 215.460,289.597 215.501,286.947 215.693 C 283.928 215.911,283.807 216.212,286.152 217.655 C 288.267 218.956,288.450 219.517,287.500 221.790 C 286.200 224.902,286.733 225.208,289.828 223.128 L 292.041 221.640 294.001 223.126 C 297.211 225.560,297.772 225.184,296.300 221.588 C 295.487 219.600,295.630 219.125,297.524 217.542 C 299.607 215.801,299.610 215.807,296.498 215.462 L 294.058 215.192 293.064 212.605 C 291.750 209.188,291.745 209.186,290.803 211.995 M327.635 212.320 C 326.644 215.395,326.171 215.769,323.267 215.769 C 320.901 215.769,320.848 216.285,323.075 217.655 C 325.193 218.958,325.324 219.371,324.423 221.923 C 323.308 225.084,323.609 225.240,326.751 223.128 L 328.964 221.640 330.925 223.126 C 334.040 225.488,334.874 225.109,333.453 221.977 C 332.394 219.642,332.457 219.377,334.519 217.506 L 336.346 215.849 334.615 215.622 C 333.663 215.497,332.459 215.349,331.939 215.294 C 331.157 215.210,330.825 214.750,330.016 212.626 C 328.696 209.162,328.654 209.156,327.635 212.320 M72.472 213.825 C 58.028 214.075,59.058 213.731,58.379 218.539 C 57.735 223.094,57.733 246.462,58.376 249.231 C 59.844 255.556,60.730 252.400,60.319 242.308 C 60.064 236.045,60.456 224.115,61.077 219.231 L 61.346 217.115 66.538 216.805 C 85.742 215.655,124.804 216.515,125.789 218.109 C 126.204 218.780,126.445 222.757,126.859 235.769 C 127.201 246.516,127.725 250.385,128.840 250.385 C 129.391 250.385,129.503 244.624,129.179 232.885 C 128.792 218.853,128.461 216.146,127.069 215.612 C 125.426 214.982,115.934 214.173,106.346 213.846 C 95.225 213.466,93.245 213.465,72.472 213.825 M222.090 218.545 C 218.473 226.210,212.315 227.232,200.386 222.149 C 193.381 219.163,192.169 219.008,194.712 221.420 C 200.161 226.590,213.944 230.287,216.869 227.362 C 217.231 226.999,218.159 226.313,218.929 225.837 C 222.623 223.554,226.582 216.154,224.109 216.154 C 223.394 216.154,222.995 216.626,222.090 218.545 M173.329 220.683 C 166.611 224.753,150.266 264.384,145.613 287.885 C 139.611 318.203,144.750 329.615,164.407 329.615 C 166.854 329.615,168.462 329.768,168.462 330.000 C 168.462 330.582,170.570 330.465,175.240 329.625 C 184.899 327.885,194.900 323.219,199.585 318.266 C 202.237 315.461,202.065 315.422,197.287 317.749 C 173.241 329.456,152.517 330.067,147.726 319.209 C 141.305 304.656,153.703 257.335,172.056 226.346 C 175.468 220.586,175.779 219.199,173.329 220.683 M83.986 227.500 C 83.579 229.384,83.543 242.107,83.941 243.521 C 84.346 244.967,86.280 245.152,97.480 244.815 C 111.013 244.407,111.003 244.671,97.849 234.300 C 87.788 226.367,86.222 225.451,86.715 227.788 C 86.860 228.476,87.126 231.895,87.304 235.387 C 87.483 238.878,87.687 241.994,87.757 242.310 C 87.866 242.799,86.334 242.970,85.860 242.521 C 85.804 242.468,85.572 239.084,85.345 235.000 C 84.892 226.859,84.541 224.925,83.986 227.500 M299.779 236.088 C 299.129 236.496,296.490 238.584,293.914 240.729 C 291.338 242.873,289.232 244.495,289.233 244.333 C 289.235 244.171,289.577 242.615,289.994 240.875 C 291.131 236.134,291.200 236.194,284.190 235.877 C 278.752 235.631,277.192 235.848,277.380 236.824 C 277.558 237.745,278.858 237.995,283.686 238.039 C 288.891 238.085,288.553 237.677,287.469 242.616 C 285.671 250.808,285.607 250.797,294.719 243.893 L 301.763 238.556 304.563 238.274 C 306.104 238.120,314.231 237.865,322.624 237.709 C 338.017 237.423,342.048 237.019,340.359 235.932 C 339.106 235.125,301.081 235.272,299.779 236.088 M217.528 236.278 C 216.678 236.899,217.412 238.462,218.554 238.462 C 218.926 238.462,219.231 238.653,219.231 238.888 C 219.231 239.145,218.867 239.223,218.316 239.084 C 215.901 238.478,214.460 241.803,216.329 243.671 C 219.288 246.630,223.406 241.676,221.328 237.657 C 220.476 236.009,218.752 235.383,217.528 236.278 M218.704 249.816 C 218.580 250.139,218.801 250.724,219.194 251.117 C 219.611 251.534,219.787 252.031,219.615 252.308 C 219.396 252.663,219.225 252.614,218.947 252.117 C 218.603 251.503,218.509 251.520,217.748 252.336 C 215.553 254.692,218.396 259.106,221.009 257.398 C 223.031 256.077,223.759 251.544,222.187 250.067 C 221.145 249.088,219.041 248.937,218.704 249.816 M62.105 255.016 C 60.078 258.297,74.429 260.080,97.692 259.438 L 107.115 259.177 112.308 262.742 C 125.290 271.655,125.476 271.577,122.075 258.613 C 121.878 257.862,122.051 257.787,124.428 257.597 C 128.120 257.300,128.622 256.538,125.125 256.538 C 123.628 256.538,121.863 256.430,121.202 256.298 C 119.698 255.997,119.683 256.314,120.944 261.923 C 121.444 264.144,121.798 266.017,121.732 266.085 C 121.666 266.153,119.076 264.142,115.976 261.615 C 109.296 256.170,110.656 256.541,97.350 256.532 C 84.624 256.522,68.959 255.729,63.380 254.812 C 62.807 254.718,62.233 254.810,62.105 255.016 M250.845 260.673 C 250.624 261.255,250.165 262.611,249.826 263.688 C 248.955 266.456,247.651 267.543,244.886 267.810 C 242.082 268.080,240.308 269.107,236.162 272.854 C 231.331 277.221,227.501 278.345,219.038 277.878 C 213.699 277.584,212.004 277.944,212.690 279.227 C 213.054 279.907,213.493 280.000,216.330 280.000 C 219.467 280.000,220.491 280.142,226.538 281.419 C 229.398 282.022,240.698 285.571,248.450 288.300 C 252.401 289.691,256.576 290.364,257.956 289.832 C 258.930 289.457,258.258 289.130,254.369 288.086 L 251.238 287.246 250.523 284.873 C 249.369 281.043,249.552 271.903,250.896 266.278 C 252.216 260.753,252.183 257.155,250.845 260.673 M176.731 262.875 C 168.154 264.756,160.825 268.980,161.280 271.780 C 161.441 272.777,161.316 273.055,160.545 273.406 C 159.631 273.823,159.210 275.385,160.013 275.385 C 160.231 275.385,161.227 274.973,162.224 274.470 C 163.222 273.968,164.633 273.428,165.359 273.271 C 166.085 273.113,168.451 272.319,170.617 271.506 C 172.783 270.692,175.630 269.853,176.944 269.642 C 179.736 269.192,179.972 269.038,179.145 268.211 C 178.146 267.212,175.441 267.528,170.362 269.238 C 165.628 270.832,164.421 270.935,166.160 269.596 C 169.236 267.227,177.093 264.860,181.975 264.830 L 185.681 264.808 188.500 266.731 C 190.051 267.788,193.709 270.944,196.629 273.743 C 202.842 279.697,206.169 282.528,207.949 283.377 C 208.654 283.714,209.231 284.212,209.231 284.486 C 209.231 285.261,207.540 289.561,206.163 292.290 L 204.915 294.761 204.003 293.246 L 203.090 291.731 199.526 291.496 C 194.699 291.177,191.021 289.685,186.300 286.129 L 184.716 284.935 181.549 285.790 C 179.206 286.422,177.517 287.216,175.056 288.844 C 169.440 292.560,167.962 293.091,169.586 290.810 C 171.654 287.907,176.706 284.411,181.090 282.852 C 184.264 281.722,185.242 281.087,184.831 280.422 C 183.682 278.563,175.536 281.956,170.431 286.419 C 164.833 291.314,163.333 291.640,166.918 287.183 C 170.268 283.019,174.584 279.831,178.462 278.655 C 180.839 277.934,183.462 276.842,183.462 276.573 C 183.462 273.955,172.052 277.824,165.919 282.521 C 161.338 286.028,161.248 284.915,165.735 280.248 C 168.615 277.252,171.198 275.793,177.044 273.860 C 179.121 273.174,181.284 272.203,181.852 271.703 L 182.885 270.794 181.731 270.782 C 177.558 270.742,168.787 274.314,165.512 277.388 C 159.931 282.625,158.360 286.923,162.026 286.923 C 163.227 286.923,163.220 286.809,162.221 290.130 C 161.656 292.010,162.151 292.886,163.777 292.882 C 165.458 292.879,165.161 295.658,163.263 297.692 C 160.387 300.774,161.410 301.788,164.697 299.114 C 169.972 294.821,173.595 292.752,180.667 289.995 L 185.538 288.095 187.288 289.217 C 190.689 291.396,194.161 292.775,196.772 292.985 C 198.398 293.115,199.206 293.335,199.084 293.612 C 198.981 293.847,198.108 295.942,197.144 298.269 C 195.348 302.606,194.970 302.728,195.954 298.654 C 196.688 295.613,196.685 294.615,195.940 294.615 C 194.944 294.615,193.734 297.955,193.540 301.243 C 192.815 313.476,207.561 301.394,211.320 286.675 C 212.360 282.600,211.668 277.104,210.588 280.872 L 210.173 282.320 206.529 279.369 C 204.525 277.746,200.808 274.485,198.269 272.123 C 187.617 262.209,184.963 261.070,176.731 262.875 M247.551 271.442 C 246.926 275.163,246.473 280.125,246.595 281.911 C 246.721 283.736,246.673 283.867,245.942 283.683 C 245.508 283.574,243.431 283.222,241.326 282.900 C 236.382 282.143,227.303 279.240,229.840 279.227 C 231.417 279.219,234.665 277.259,237.392 274.668 C 241.181 271.069,243.072 270.011,245.723 270.005 L 247.793 270.000 247.551 271.442 M250.566 325.402 C 250.430 325.622,250.564 326.185,250.865 326.652 C 251.165 327.118,251.966 329.126,252.644 331.113 C 254.206 335.687,254.465 336.154,255.440 336.154 C 256.081 336.154,256.190 335.985,255.998 335.288 C 255.866 334.813,255.265 332.645,254.662 330.473 C 253.348 325.737,251.655 323.640,250.566 325.402 M168.301 333.145 C 168.214 333.425,168.050 334.260,167.937 335.000 C 167.825 335.740,167.467 337.558,167.142 339.038 C 166.400 342.425,166.359 345.910,167.055 346.488 C 167.748 347.063,168.078 346.655,168.074 345.224 C 168.072 344.572,168.627 341.821,169.308 339.112 C 170.237 335.410,170.442 334.023,170.135 333.535 C 169.616 332.711,168.509 332.476,168.301 333.145 " stroke="none" fill="#000000" fill-rule="evenodd"></path></g></svg>