<svg xmlns="http://www.w3.org/2000/svg" xmlns:xlink="http://www.w3.org/1999/xlink" id="svg" width="400" height="400" viewBox="0, 0, 400,400 undefined"><g id="svgg"><path id="path0" d="M307.897 34.670 C 306.529 35.084,303.933 36.852,302.128 38.600 C 299.366 41.275,298.402 41.751,296.041 41.605 C 294.016 41.480,292.811 41.888,291.708 43.072 C 290.229 44.659,290.086 44.671,287.206 43.433 C 276.849 38.981,257.455 42.944,248.889 51.264 C 239.047 60.822,241.801 80.140,252.853 79.078 C 256.135 78.763,262.272 75.807,262.298 74.530 C 262.356 71.676,270.324 62.308,272.693 62.308 C 277.160 62.308,285.381 72.149,285.384 77.500 C 285.385 79.059,286.446 78.615,288.607 76.152 C 289.913 74.663,291.070 74.010,291.862 74.314 C 294.780 75.433,293.922 82.030,290.751 82.859 C 289.001 83.317,288.692 84.615,290.333 84.615 C 290.939 84.615,291.655 85.308,291.923 86.154 C 293.346 90.636,299.834 85.378,301.977 78.007 C 303.741 71.937,303.230 61.569,300.940 56.982 C 299.058 53.212,299.137 52.699,301.481 53.443 C 303.829 54.189,304.356 55.703,305.297 64.425 C 306.567 76.196,309.994 81.886,318.462 86.280 C 326.110 90.250,338.231 87.973,341.048 82.038 C 342.838 78.265,342.674 77.657,340.009 78.191 C 334.608 79.271,332.203 75.436,331.808 65.115 C 330.994 43.818,320.755 30.782,307.897 34.670 M299.040 44.770 C 303.134 49.703,299.643 53.094,295.145 48.553 L 291.923 45.300 293.725 43.815 C 295.584 42.284,297.220 42.578,299.040 44.770 M134.232 51.203 L 131.326 53.175 127.636 51.587 C 112.547 45.096,99.023 61.928,101.315 84.346 C 101.666 87.786,101.353 89.071,98.937 94.094 C 92.756 106.943,97.713 115.733,111.154 115.759 C 117.584 115.771,120.894 114.356,125.597 109.586 L 128.848 106.289 130.983 108.125 C 132.826 109.710,133.322 111.098,134.599 118.250 C 136.048 126.362,141.098 175.312,140.543 175.867 C 140.389 176.021,138.353 175.114,136.018 173.849 L 131.774 171.551 131.294 162.593 C 131.030 157.666,130.631 153.452,130.407 153.228 C 129.267 152.087,129.121 154.602,129.848 162.848 C 131.558 182.237,124.704 187.922,114.118 175.895 C 108.979 170.057,108.734 169.156,111.484 166.213 C 112.783 164.822,113.846 163.201,113.846 162.611 C 113.846 160.401,115.342 161.690,118.404 166.538 C 121.363 171.223,123.627 173.218,122.549 170.192 C 119.733 162.280,98.961 139.231,94.648 139.231 C 91.896 139.231,91.647 138.319,93.977 136.771 C 96.053 135.393,95.357 134.131,92.132 133.423 C 90.776 133.125,89.066 132.506,88.332 132.048 C 85.930 130.548,82.758 132.304,82.276 135.401 C 81.879 137.951,81.829 137.988,81.216 136.199 C 80.689 134.663,80.957 133.990,82.682 132.506 C 85.028 130.488,84.852 129.408,82.391 130.725 C 78.879 132.604,78.718 139.239,82.159 140.309 C 83.438 140.707,80.902 140.320,76.731 139.481 C 73.935 138.919,73.843 140.997,76.584 142.793 C 79.095 144.438,86.357 146.856,90.539 147.440 C 93.380 147.837,94.155 148.419,96.956 152.266 C 102.121 159.358,106.498 167.692,105.059 167.692 C 104.392 167.692,103.846 168.038,103.846 168.462 C 103.846 168.885,104.647 169.231,105.627 169.231 C 106.926 169.231,108.225 170.417,110.434 173.622 C 116.120 181.868,122.311 184.872,127.759 182.029 C 129.404 181.170,129.988 181.166,131.129 182.000 C 131.889 182.556,134.368 183.396,136.640 183.867 L 140.769 184.724 140.769 192.413 L 140.769 200.101 133.400 199.858 L 126.031 199.615 126.494 196.682 C 127.524 190.152,127.800 184.218,127.017 185.429 C 125.368 187.982,118.592 241.715,118.310 254.485 C 118.162 261.179,117.904 260.948,126.924 262.224 C 133.008 263.085,133.892 263.407,134.204 264.871 C 134.400 265.788,135.971 279.584,137.695 295.529 C 139.420 311.474,141.483 328.955,142.280 334.375 C 143.169 340.420,143.455 344.513,143.019 344.962 C 142.628 345.363,142.308 347.311,142.308 349.290 C 142.308 354.581,144.840 355.994,146.334 351.538 C 146.618 350.694,146.975 350.924,147.669 352.399 C 148.407 353.969,149.237 354.451,151.424 354.583 C 172.308 355.842,174.542 353.818,159.231 347.509 L 151.154 344.182 151.303 332.668 C 151.456 320.870,152.562 299.146,154.121 277.308 L 155.000 265.000 160.436 264.458 C 165.985 263.904,170.563 262.614,169.775 261.826 C 169.534 261.585,167.496 261.787,165.245 262.274 C 158.906 263.647,143.277 263.191,130.769 261.268 L 119.615 259.554 119.843 252.661 C 120.112 244.497,121.634 230.276,123.985 213.965 L 125.685 202.161 130.727 202.779 C 142.210 204.189,141.856 204.476,142.179 193.501 L 142.435 184.819 146.025 185.204 C 148.000 185.416,149.683 185.640,149.766 185.702 C 149.849 185.764,150.160 189.887,150.458 194.864 L 150.999 203.914 155.692 203.688 C 159.930 203.483,160.409 203.289,160.636 201.685 C 160.870 200.036,160.690 199.945,158.142 200.423 C 152.143 201.549,151.538 200.863,151.538 192.934 C 151.538 189.064,151.766 186.125,152.045 186.404 C 152.323 186.682,152.929 186.614,153.391 186.252 C 153.853 185.890,156.141 185.380,158.475 185.119 C 173.448 183.443,175.996 178.402,172.724 156.923 C 168.988 132.406,162.042 118.462,153.563 118.462 C 150.261 118.462,146.154 120.656,146.154 122.419 C 146.154 122.842,147.066 122.471,148.181 121.594 C 153.285 117.579,159.655 120.834,163.836 129.593 C 170.282 143.101,174.938 174.207,171.154 178.484 C 167.838 182.232,153.643 185.951,154.871 182.750 C 155.154 182.015,155.385 179.890,155.385 178.029 C 155.385 174.973,155.590 174.595,157.500 174.136 C 160.689 173.370,165.385 170.848,165.385 169.902 C 165.385 169.442,164.931 169.240,164.376 169.453 C 163.626 169.741,163.143 168.063,162.493 162.908 C 162.011 159.096,161.427 155.786,161.193 155.552 C 160.199 154.558,160.043 156.172,160.766 159.980 C 161.191 162.222,161.538 165.676,161.538 167.657 L 161.538 171.258 157.432 172.552 C 149.744 174.975,150.686 177.281,147.360 147.885 C 143.372 112.645,143.224 109.879,145.192 107.377 C 146.613 105.571,146.839 105.510,147.797 106.668 C 148.374 107.366,150.231 108.566,151.923 109.336 C 165.624 115.568,176.684 98.771,163.324 92.021 C 160.111 90.398,160.006 89.902,160.210 77.308 C 160.375 67.133,160.275 66.305,158.392 62.308 C 153.094 51.057,141.976 45.947,134.232 51.203 M137.340 67.600 C 153.082 74.751,150.939 115.566,135.168 108.964 C 122.204 103.537,118.235 70.411,131.154 75.468 C 131.577 75.634,131.923 75.423,131.923 75.000 C 131.923 74.577,130.472 74.251,128.699 74.276 C 125.110 74.327,125.113 74.286,129.017 69.423 C 131.947 65.773,132.872 65.570,137.340 67.600 M264.774 71.976 C 263.826 72.639,263.254 73.511,263.502 73.912 C 263.754 74.319,264.805 73.973,265.877 73.130 C 267.404 71.928,268.206 71.772,269.776 72.369 C 272.005 73.216,273.247 72.603,271.516 71.508 C 269.791 70.417,266.692 70.632,264.774 71.976 M136.538 73.227 C 134.171 74.569,133.792 75.515,134.288 78.846 C 135.171 84.768,138.769 90.000,141.959 90.000 C 143.016 90.000,142.074 88.491,140.756 88.073 C 139.241 87.592,136.153 82.581,136.155 80.608 C 136.156 80.062,136.761 80.827,137.501 82.308 C 139.999 87.308,143.669 85.861,142.623 80.288 C 141.972 76.817,140.749 77.741,141.322 81.271 C 141.893 84.793,140.154 84.573,138.515 80.916 C 137.910 79.566,136.958 78.462,136.400 78.462 C 134.836 78.462,135.198 75.539,136.873 74.642 C 137.691 74.204,139.269 73.846,140.379 73.846 C 141.530 73.846,142.194 73.515,141.923 73.077 C 141.294 72.059,138.460 72.137,136.538 73.227 M269.219 79.423 C 269.202 83.016,268.107 84.520,267.006 82.462 C 266.537 81.587,266.154 80.259,266.154 79.512 C 266.154 78.631,265.891 78.417,265.405 78.903 C 264.253 80.054,265.661 84.189,267.312 84.507 C 268.100 84.658,269.200 84.160,269.757 83.398 C 270.941 81.779,271.123 76.923,270.000 76.923 C 269.577 76.923,269.225 78.048,269.219 79.423 M131.841 81.393 C 132.116 83.217,132.124 85.060,131.858 85.489 C 131.272 86.438,127.692 83.259,127.692 81.789 C 127.692 81.228,127.346 80.769,126.923 80.769 C 125.656 80.769,126.049 82.737,127.748 84.896 C 129.607 87.260,133.030 87.691,133.158 85.577 C 133.343 82.523,132.898 79.568,132.145 78.846 C 131.589 78.314,131.496 79.099,131.841 81.393 M262.706 80.192 C 262.528 80.721,262.261 82.019,262.111 83.077 C 261.851 84.919,261.787 84.887,260.598 82.308 C 259.437 79.790,259.352 79.743,259.294 81.584 C 259.210 84.217,260.969 86.537,262.581 85.918 C 263.466 85.579,263.846 84.500,263.846 82.332 C 263.846 79.274,263.336 78.316,262.706 80.192 M118.434 83.796 C 119.881 86.499,119.452 89.145,117.643 88.671 C 115.655 88.152,113.530 85.011,114.122 83.467 C 114.754 81.821,117.489 82.030,118.434 83.796 M261.132 89.556 C 259.447 92.685,260.583 94.977,263.538 94.412 C 264.800 94.171,265.483 94.603,266.149 96.065 C 272.100 109.127,284.104 112.297,289.572 102.251 C 291.637 98.456,293.467 88.156,291.612 90.769 C 291.161 91.404,290.787 92.640,290.781 93.517 C 290.731 100.315,284.914 107.372,279.913 106.701 C 273.803 105.882,269.524 101.040,272.300 98.085 C 273.376 96.940,273.668 96.135,273.129 95.802 C 272.671 95.519,272.099 95.802,271.858 96.430 C 270.938 98.829,269.249 98.437,267.737 95.472 C 266.623 93.288,266.460 92.309,267.106 91.664 C 268.824 89.945,266.874 89.778,265.054 91.488 C 262.665 93.732,260.961 92.918,262.651 90.340 C 263.308 89.337,263.846 88.157,263.846 87.719 C 263.846 86.096,262.507 87.002,261.132 89.556 M137.099 96.285 C 134.908 98.476,136.948 103.053,139.652 102.015 C 140.522 101.682,140.795 100.738,140.624 98.666 C 140.371 95.617,138.817 94.568,137.099 96.285 M139.231 98.846 C 139.231 99.904,138.885 100.769,138.462 100.769 C 137.602 100.769,137.407 98.234,138.205 97.436 C 139.053 96.588,139.231 96.832,139.231 98.846 M289.615 108.069 C 286.231 109.503,282.163 110.901,280.577 111.175 C 277.349 111.733,277.403 111.620,278.494 115.549 C 279.573 119.434,280.476 119.759,280.130 116.139 C 279.856 113.259,279.934 113.154,282.928 112.348 C 284.621 111.892,287.954 110.658,290.333 109.605 C 292.713 108.553,295.082 107.693,295.599 107.695 C 296.789 107.698,308.041 140.913,309.149 147.692 C 309.598 150.442,310.823 162.061,311.870 173.513 C 313.865 195.329,315.318 204.357,317.710 209.808 L 319.144 213.077 315.149 213.090 C 309.605 213.109,302.614 214.703,288.300 219.211 C 270.272 224.889,270.946 225.283,273.072 210.314 C 274.744 198.537,275.074 190.395,273.846 191.154 C 273.423 191.415,273.066 193.426,273.053 195.622 C 273.039 197.819,272.531 203.250,271.923 207.692 C 269.979 221.902,270.415 224.615,274.645 224.615 L 276.675 224.615 277.177 260.962 C 277.812 306.986,279.745 351.822,281.265 355.782 C 281.494 356.377,282.413 357.097,283.307 357.381 C 284.557 357.777,283.457 358.377,278.556 359.969 C 266.786 363.794,269.181 367.865,281.494 364.963 C 285.939 363.915,286.517 363.917,287.109 364.975 C 288.120 366.782,294.945 366.454,302.618 364.231 C 310.656 361.901,310.000 361.899,310.000 364.255 C 310.000 366.557,311.831 367.507,313.536 366.092 C 314.452 365.332,314.627 364.295,314.256 361.823 C 313.832 358.999,313.989 358.439,315.413 357.677 C 316.893 356.885,317.013 356.355,316.597 352.436 C 315.839 345.280,314.721 314.673,313.488 267.308 C 312.850 242.769,312.175 220.875,311.988 218.654 L 311.650 214.615 315.633 214.643 L 319.615 214.671 317.308 216.562 C 314.861 218.568,315.564 219.048,318.795 217.576 C 321.281 216.443,321.924 214.393,320.496 212.150 C 317.124 206.854,315.233 196.394,313.086 171.154 C 312.223 161.000,311.003 149.923,310.376 146.538 C 309.386 141.197,298.922 108.767,297.388 106.283 C 296.646 105.084,296.671 105.078,289.615 108.069 M59.545 116.687 C 58.486 117.830,57.726 119.469,57.851 120.341 C 58.155 122.472,59.456 122.358,59.616 120.186 C 59.686 119.230,60.554 117.586,61.544 116.532 C 62.535 115.478,62.922 114.615,62.405 114.615 C 61.888 114.615,60.601 115.548,59.545 116.687 M285.684 116.850 C 281.163 119.607,277.865 125.794,271.501 143.459 C 263.765 164.932,261.256 169.013,256.353 168.093 C 253.104 167.483,244.627 163.922,243.077 162.515 C 242.442 161.939,241.284 161.031,240.502 160.497 C 239.147 159.572,239.178 159.412,241.147 157.071 C 243.896 153.805,245.793 153.883,246.923 157.308 C 247.412 158.788,248.307 160.000,248.912 160.000 C 249.806 160.000,249.845 159.675,249.118 158.269 C 248.625 157.317,247.993 156.042,247.714 155.436 C 247.196 154.314,246.213 153.657,243.462 152.593 C 242.174 152.095,242.339 151.952,244.473 151.716 C 247.457 151.385,248.824 152.341,250.744 156.102 C 252.432 159.408,259.011 166.630,259.704 165.937 C 259.975 165.666,258.549 163.614,256.535 161.376 C 254.521 159.138,252.507 156.442,252.059 155.385 C 251.611 154.327,250.563 152.687,249.729 151.741 L 248.213 150.021 252.271 145.355 C 254.503 142.788,256.085 140.447,255.787 140.152 C 255.488 139.857,253.526 141.583,251.428 143.989 L 247.612 148.362 245.152 146.966 C 238.995 143.470,234.615 145.042,234.615 150.746 C 234.615 152.835,236.794 156.154,238.165 156.154 C 239.559 156.154,239.541 157.621,238.141 158.159 C 237.294 158.484,217.832 147.756,207.187 141.096 C 205.776 140.214,205.463 140.225,205.098 141.175 C 204.818 141.906,205.698 142.885,207.642 144.004 C 210.243 145.501,210.674 146.158,211.085 149.258 C 211.872 155.193,219.837 164.615,224.065 164.615 C 224.487 164.615,224.575 166.047,224.276 168.041 C 223.595 172.587,224.442 177.256,225.751 176.169 C 226.435 175.601,228.335 176.116,232.413 177.974 C 254.363 187.977,267.150 188.820,273.264 180.668 C 277.990 174.367,288.399 153.473,288.447 150.192 C 288.481 147.893,287.162 149.590,285.460 154.038 C 272.892 186.872,265.196 190.485,235.385 177.544 L 225.769 173.370 225.868 169.473 C 225.952 166.152,228.079 157.692,228.830 157.692 C 228.965 157.692,233.697 159.949,239.346 162.706 C 253.697 169.713,263.113 171.963,266.000 169.077 C 267.433 167.644,267.088 166.781,265.435 167.665 C 262.515 169.228,261.053 168.698,262.858 166.731 C 265.302 164.066,267.869 158.370,272.305 145.769 C 280.896 121.361,284.634 116.108,292.570 117.287 C 295.552 117.730,295.668 117.682,294.276 116.574 C 292.254 114.963,288.584 115.081,285.684 116.850 M64.286 117.363 C 62.961 118.687,62.611 123.846,63.846 123.846 C 64.269 123.846,64.615 122.748,64.615 121.407 C 64.615 120.065,65.188 118.334,65.888 117.561 C 67.440 115.846,65.982 115.666,64.286 117.363 M140.962 117.043 C 142.971 116.906,143.077 117.068,143.077 120.290 C 143.077 125.374,137.564 125.961,136.514 120.989 C 135.437 115.889,135.411 116.057,137.179 116.639 C 138.096 116.940,139.798 117.122,140.962 117.043 M121.564 119.712 C 116.003 124.391,113.994 135.548,116.109 150.013 C 117.203 157.491,118.666 161.737,118.093 155.769 C 116.996 144.340,116.804 131.715,117.678 128.489 C 119.545 121.604,126.344 117.270,130.430 120.360 C 133.040 122.334,134.443 121.677,132.072 119.591 C 129.083 116.961,124.774 117.011,121.564 119.712 M197.500 126.985 C 196.760 127.416,196.156 128.530,196.158 129.461 C 196.161 131.096,196.220 131.084,197.888 129.093 C 198.838 127.959,200.308 126.874,201.154 126.682 C 202.389 126.401,202.314 126.319,200.769 126.266 C 199.712 126.230,198.240 126.553,197.500 126.985 M202.435 128.151 C 200.568 129.459,200.395 132.322,202.149 132.900 C 202.865 133.135,203.007 132.683,202.658 131.289 C 202.259 129.702,202.566 129.138,204.355 128.168 C 205.559 127.516,206.011 126.971,205.363 126.954 C 204.717 126.937,203.399 127.476,202.435 128.151 M85.538 134.000 C 84.543 134.995,84.330 137.592,85.082 139.552 C 85.927 141.753,86.880 140.823,86.708 137.968 C 86.606 136.287,86.923 135.032,87.501 134.827 C 88.115 134.610,88.294 134.927,87.994 135.707 C 87.338 137.417,88.299 140.769,89.445 140.769 C 90.005 140.769,90.396 139.765,90.392 138.342 C 90.388 137.008,90.844 135.759,91.405 135.566 C 92.233 135.283,92.246 135.504,91.476 136.737 C 90.072 138.986,91.097 140.769,93.795 140.769 C 96.604 140.769,99.715 143.377,107.443 152.208 C 113.614 159.261,113.896 160.102,111.346 163.865 C 108.727 167.730,108.153 167.489,104.373 160.934 C 102.451 157.602,99.703 153.336,98.267 151.455 C 96.831 149.573,95.796 147.611,95.969 147.094 C 96.181 146.457,95.282 146.154,93.181 146.154 C 89.802 146.154,78.037 142.718,77.293 141.515 C 77.040 141.105,77.178 140.769,77.602 140.769 C 78.025 140.769,78.585 141.115,78.846 141.538 C 80.800 144.701,85.047 141.714,83.831 138.032 C 82.912 135.247,83.701 133.077,85.633 133.077 C 86.173 133.077,86.140 133.399,85.538 134.000 M277.378 142.964 C 276.518 144.355,277.848 146.241,279.521 146.002 C 281.759 145.683,281.738 142.776,279.496 142.456 C 278.584 142.326,277.631 142.554,277.378 142.964 M244.575 148.243 L 246.538 149.541 243.953 150.291 C 241.740 150.933,241.246 150.827,240.531 149.559 C 239.742 148.159,239.669 148.184,239.224 150.000 L 238.752 151.923 237.778 150.132 C 235.577 146.084,239.612 144.962,244.575 148.243 M299.685 146.810 C 299.462 147.171,299.765 148.122,300.357 148.925 C 301.628 150.646,303.599 149.392,302.819 147.359 C 302.324 146.070,300.356 145.725,299.685 146.810 M214.615 149.594 C 214.615 151.763,217.386 155.385,219.046 155.385 C 219.981 155.385,219.757 154.830,218.136 153.139 C 214.632 149.482,216.228 148.950,220.388 152.389 C 222.501 154.136,224.873 156.015,225.658 156.565 C 226.974 157.488,226.333 163.077,224.910 163.077 C 223.821 163.077,218.604 159.889,217.163 158.344 C 213.751 154.684,210.965 146.456,213.462 147.414 C 214.096 147.658,214.615 148.639,214.615 149.594 M239.188 152.719 C 239.662 152.426,239.798 152.709,239.524 153.422 C 238.880 155.101,237.901 154.906,236.824 152.885 C 235.996 151.331,236.029 151.259,237.148 152.182 C 237.833 152.747,238.751 152.989,239.188 152.719 M237.781 169.160 C 236.410 170.028,237.213 173.498,238.937 174.159 C 241.530 175.154,243.436 171.436,241.385 169.385 C 240.297 168.297,239.247 168.232,237.781 169.160 M304.288 170.513 C 304.017 171.219,304.130 172.130,304.538 172.538 C 305.671 173.671,307.692 172.553,307.692 170.793 C 307.692 168.864,305.006 168.643,304.288 170.513 M240.385 172.308 C 240.012 172.910,239.570 172.955,239.057 172.442 C 238.634 172.019,238.539 171.266,238.846 170.769 C 239.218 170.167,239.661 170.122,240.174 170.635 C 240.597 171.058,240.692 171.811,240.385 172.308 M136.160 175.647 C 139.496 177.385,139.841 177.414,146.144 176.483 C 153.709 175.366,153.846 175.408,153.846 178.829 C 153.846 184.368,151.158 185.072,138.943 182.735 C 131.416 181.295,129.724 180.415,130.759 178.480 C 131.188 177.679,131.538 176.309,131.538 175.435 C 131.538 173.427,131.935 173.445,136.160 175.647 M287.700 184.221 C 285.800 186.511,288.874 189.585,291.164 187.684 C 292.666 186.437,292.626 184.133,291.091 183.544 C 289.286 182.851,288.748 182.959,287.700 184.221 M161.063 191.154 C 164.888 228.541,169.808 260.769,171.690 260.769 C 172.143 260.769,172.284 260.023,172.017 259.038 C 170.326 252.819,168.039 237.753,165.423 215.595 C 163.763 201.538,162.015 189.423,161.537 188.672 C 160.850 187.592,160.752 188.108,161.063 191.154 M306.154 196.538 C 306.154 197.929,306.567 198.462,307.647 198.462 C 309.459 198.462,310.166 197.481,309.536 195.839 C 308.748 193.785,306.154 194.322,306.154 196.538 M281.838 211.866 C 281.583 212.532,281.579 213.611,281.829 214.264 C 282.458 215.902,285.574 214.246,285.230 212.457 C 284.903 210.757,282.429 210.327,281.838 211.866 " stroke="none" fill="#ffffff" fill-rule="evenodd"/></g></svg>