<svg xmlns="http://www.w3.org/2000/svg" xmlns:xlink="http://www.w3.org/1999/xlink" id="svg" width="400" height="400" viewBox="0, 0, 400,400 undefined"><g id="svgg"><path id="path0" d="M179.424 44.243 C 172.269 45.798,167.280 48.840,159.926 56.134 C 143.687 72.241,141.526 88.855,151.562 120.460 C 156.142 134.881,156.141 134.854,152.196 142.005 C 147.839 149.902,147.252 159.946,150.869 164.692 C 159.129 175.531,179.372 174.539,189.648 162.792 C 193.968 157.853,193.628 155.914,194.564 190.769 C 196.103 248.116,196.352 273.886,195.448 282.308 C 193.114 304.050,193.700 343.789,196.449 350.241 C 200.183 359.003,218.079 359.607,219.691 351.026 C 220.262 347.985,219.537 278.730,218.826 268.462 C 218.382 262.044,218.056 261.715,223.109 272.784 C 234.870 298.548,256.278 308.965,264.903 293.120 C 277.902 269.236,260.381 186.336,240.071 175.633 C 234.852 172.882,225.084 173.375,221.118 176.588 C 219.664 177.767,219.678 177.791,221.538 177.344 C 233.308 174.514,237.672 175.220,243.144 180.839 C 256.071 194.110,267.805 236.594,267.665 269.615 C 267.454 319.144,228.214 301.158,216.116 245.988 C 214.944 240.646,215.392 239.904,221.032 237.828 C 231.369 234.024,231.585 234.132,236.112 245.385 C 241.556 258.916,246.699 266.493,251.731 268.394 C 254.573 269.467,254.495 268.067,251.630 266.586 C 247.293 264.343,240.088 252.408,236.537 241.586 C 235.782 239.285,234.284 236.522,233.208 235.445 C 230.429 232.667,229.945 226.515,232.216 222.840 C 234.587 219.004,234.351 215.244,231.538 212.041 C 230.269 210.595,229.231 208.906,229.231 208.287 C 229.231 205.352,223.526 203.375,221.633 205.655 C 220.958 206.468,220.196 206.514,218.126 205.866 C 214.809 204.828,214.717 204.212,214.437 181.154 L 214.231 164.231 216.624 160.993 L 219.018 157.755 221.872 161.899 C 226.458 168.558,236.861 174.236,241.723 172.735 C 242.256 172.571,243.618 172.234,244.748 171.988 C 257.403 169.226,258.701 152.464,247.567 135.579 C 240.901 125.469,240.669 122.374,245.674 110.232 C 258.552 78.985,248.897 52.521,222.115 45.660 C 215.765 44.033,206.586 44.524,202.922 46.686 C 200.334 48.213,200.218 48.217,198.326 46.839 C 193.877 43.598,186.842 42.632,179.424 44.243 M299.051 59.926 C 298.317 62.423,296.480 66.085,294.969 68.065 C 291.804 72.212,291.753 74.471,294.895 71.329 C 297.503 68.720,301.537 60.323,301.538 57.500 C 301.539 54.042,300.475 55.080,299.051 59.926 M80.463 65.257 C 79.193 67.313,88.566 79.591,93.261 82.018 C 96.098 83.485,97.221 82.573,94.615 80.917 C 91.068 78.663,85.463 72.411,83.479 68.495 C 81.453 64.498,81.140 64.162,80.463 65.257 M288.641 69.470 C 288.152 71.665,287.526 74.240,287.248 75.192 C 286.230 78.686,296.869 77.046,300.316 73.178 C 302.508 70.718,301.336 70.431,298.090 72.634 C 292.835 76.200,288.644 76.259,289.978 72.749 C 290.922 70.267,291.018 66.398,290.149 65.861 C 289.808 65.650,289.129 67.274,288.641 69.470 M96.154 74.095 C 96.154 74.302,97.192 76.787,98.462 79.615 C 99.731 82.444,100.769 84.900,100.769 85.072 C 100.769 85.843,92.961 85.276,89.581 84.259 C 85.726 83.099,84.871 83.162,85.725 84.543 C 87.215 86.955,103.077 88.208,103.077 85.914 C 103.077 84.973,101.224 80.539,99.024 76.216 C 98.192 74.579,96.154 73.074,96.154 74.095 M206.854 76.980 C 216.467 79.042,220.941 89.689,222.021 113.077 C 223.867 153.031,212.570 175.217,197.535 161.168 C 167.138 132.763,174.090 69.954,206.854 76.980 M318.462 88.435 C 318.462 91.922,310.999 96.369,303.643 97.265 C 300.856 97.605,299.395 98.105,299.708 98.612 C 301.314 101.210,315.510 96.453,318.443 92.334 C 320.105 90.000,320.496 87.692,319.231 87.692 C 318.808 87.692,318.462 88.026,318.462 88.435 M301.051 92.333 C 300.614 92.771,298.568 93.769,296.504 94.553 C 291.656 96.393,291.501 97.163,295.259 100.738 C 298.773 104.081,303.490 106.048,304.815 104.724 C 305.405 104.134,305.219 103.758,304.167 103.415 C 299.879 102.013,298.455 101.231,296.524 99.216 L 294.406 97.005 296.626 96.471 C 300.157 95.623,303.077 93.903,303.077 92.673 C 303.077 91.351,302.184 91.201,301.051 92.333 M207.934 93.434 C 202.859 95.641,201.676 104.400,204.990 115.235 C 206.660 120.693,213.846 128.064,213.846 124.319 C 213.846 123.733,212.948 122.665,211.851 121.946 C 207.773 119.275,203.980 106.614,205.387 100.375 C 206.279 96.421,207.658 95.276,212.036 94.854 C 217.326 94.344,218.350 93.964,216.902 93.047 C 215.259 92.008,210.766 92.202,207.934 93.434 M186.463 94.542 C 183.356 95.953,181.724 98.010,183.058 98.834 C 183.433 99.066,185.062 98.351,186.678 97.245 C 189.204 95.515,190.180 95.290,193.643 95.637 C 197.911 96.065,199.508 95.230,196.995 93.885 C 194.695 92.654,189.973 92.948,186.463 94.542 M197.493 104.316 C 197.237 104.730,197.091 107.228,197.168 109.867 C 197.401 117.863,193.471 117.892,190.243 109.919 C 188.682 106.062,187.008 104.594,187.542 107.550 C 189.664 119.298,199.334 121.671,199.177 110.406 C 199.119 106.244,198.248 103.095,197.493 104.316 M207.697 105.577 C 207.726 117.294,216.447 119.991,217.025 108.462 C 217.299 103.017,215.920 103.219,215.305 108.713 C 214.372 117.053,211.138 116.141,209.639 107.115 C 209.070 103.690,207.689 102.596,207.697 105.577 M200.249 137.192 C 201.948 149.582,211.422 151.171,212.827 139.301 L 213.269 135.569 207.981 135.210 C 205.072 135.013,202.032 134.567,201.224 134.220 C 199.863 133.634,199.792 133.851,200.249 137.192 M112.692 135.569 C 107.856 137.225,106.628 138.175,105.222 141.347 C 103.142 146.041,102.854 150.720,104.025 160.769 L 105.056 169.615 102.228 170.886 C 98.235 172.680,95.740 183.120,92.789 210.385 C 88.218 252.616,91.909 264.246,109.874 264.220 C 124.691 264.199,152.032 247.207,163.074 231.158 C 167.385 224.893,165.410 226.158,155.553 235.976 C 125.168 266.242,98.168 272.019,93.837 249.183 C 91.596 237.365,94.639 200.392,99.736 177.500 L 100.893 172.308 107.657 172.308 C 118.098 172.308,126.329 176.191,124.560 180.281 C 123.084 183.696,119.173 201.516,117.209 213.786 C 114.664 229.674,115.052 228.459,112.524 228.473 C 111.347 228.480,109.865 228.821,109.231 229.231 C 106.909 230.731,117.462 230.064,121.815 228.436 C 127.826 226.187,131.487 222.604,148.082 202.733 C 168.369 178.439,171.489 175.902,183.729 173.746 C 189.856 172.667,190.040 171.182,183.980 171.731 C 172.222 172.797,167.346 176.590,147.789 199.878 C 128.858 222.422,120.101 230.357,117.273 227.530 C 116.368 226.625,122.071 195.767,125.062 185.385 C 127.275 177.702,127.282 177.875,124.704 175.467 C 119.831 170.915,125.564 162.615,135.596 159.699 C 139.453 158.578,140.000 158.178,140.000 156.478 C 140.000 152.450,132.068 151.225,127.704 154.580 C 125.178 156.521,126.355 157.590,129.181 155.921 C 131.879 154.327,135.349 154.239,137.353 155.714 C 139.005 156.930,139.228 156.784,133.194 158.427 C 129.379 159.466,124.075 163.982,121.877 168.062 C 120.859 169.952,120.047 170.644,119.241 170.306 C 118.601 170.037,115.631 169.644,112.641 169.432 L 107.205 169.047 106.295 162.753 C 104.402 149.662,105.746 140.738,109.951 138.488 C 112.719 137.006,114.302 141.296,112.612 145.702 C 111.864 147.650,110.769 146.291,110.769 143.416 C 110.769 141.960,110.444 140.769,110.045 140.769 C 107.585 140.769,108.401 147.360,111.003 148.506 C 111.932 148.915,113.864 149.957,115.296 150.821 C 122.515 155.178,128.726 151.148,128.801 142.060 L 128.846 136.608 123.077 135.670 C 116.209 134.554,115.673 134.549,112.692 135.569 M118.305 139.637 C 118.618 142.832,116.801 148.077,115.381 148.077 C 114.534 148.077,114.328 147.469,114.599 145.769 C 114.801 144.500,114.964 141.976,114.962 140.161 C 114.956 136.001,117.904 135.539,118.305 139.637 M123.077 140.523 C 123.077 143.576,121.451 149.115,120.267 150.098 C 118.329 151.706,117.380 149.758,118.781 147.050 C 119.451 145.753,120.000 143.175,120.000 141.320 C 120.000 139.466,120.228 137.721,120.506 137.443 C 121.391 136.558,123.077 138.578,123.077 140.523 M209.822 137.684 C 211.331 137.691,211.501 137.979,211.077 139.808 C 209.335 147.317,204.108 146.888,202.552 139.107 L 202.067 136.683 205.072 137.179 C 206.725 137.452,208.862 137.679,209.822 137.684 M127.427 142.509 C 127.177 144.621,126.434 147.170,125.776 148.174 C 124.379 150.306,122.629 150.672,123.480 148.654 C 123.792 147.913,124.221 145.404,124.434 143.077 C 124.811 138.962,125.728 137.339,127.173 138.232 C 127.563 138.473,127.677 140.397,127.427 142.509 M200.323 175.003 C 204.321 177.032,207.161 177.379,210.224 176.215 L 212.086 175.507 212.581 182.487 C 213.522 195.739,213.292 199.056,211.346 200.315 C 207.537 202.779,199.795 202.762,197.317 200.284 C 196.321 199.288,195.385 173.064,196.346 173.080 C 196.452 173.082,198.241 173.947,200.323 175.003 M235.385 198.679 C 236.442 199.209,237.649 200.415,238.067 201.360 C 238.887 203.214,239.634 203.522,240.381 202.314 C 241.098 201.153,237.229 197.691,235.227 197.704 C 233.468 197.715,233.468 197.718,235.385 198.679 M232.500 201.556 C 233.240 202.011,233.846 202.886,233.846 203.500 C 233.846 204.113,234.216 204.615,234.669 204.615 C 236.493 204.615,234.994 201.153,233.077 200.941 C 231.413 200.756,231.335 200.839,232.500 201.556 M226.484 207.363 C 227.148 208.027,227.692 209.174,227.692 209.911 C 227.692 210.648,228.731 212.246,230.000 213.462 C 232.806 216.150,232.860 217.341,230.385 221.997 C 228.341 225.840,227.999 228.684,229.201 231.844 C 229.895 233.670,229.766 233.816,227.085 234.261 C 225.515 234.521,223.239 235.049,222.027 235.435 C 219.175 236.342,219.160 236.329,215.036 229.713 C 209.161 220.288,207.818 213.827,211.530 212.856 C 212.536 212.593,213.077 211.808,213.077 210.610 C 213.077 206.872,216.062 205.846,218.975 208.583 L 220.742 210.242 222.350 208.198 C 224.212 205.830,224.827 205.706,226.484 207.363 M189.616 212.584 C 187.610 215.645,190.199 218.922,192.670 216.451 C 194.080 215.041,194.191 212.960,192.923 211.692 C 191.595 210.365,190.957 210.537,189.616 212.584 M167.438 219.283 C 167.162 221.581,166.933 226.936,166.930 231.183 C 166.902 262.912,161.040 316.934,155.288 338.462 C 153.535 345.019,151.960 351.423,151.787 352.692 L 151.473 355.000 152.750 352.759 C 159.994 340.048,166.712 289.662,168.912 231.538 C 169.410 218.395,168.476 210.635,167.438 219.283 M189.231 242.308 C 188.245 244.150,189.427 246.923,191.197 246.923 C 192.611 246.923,194.213 243.604,193.587 241.972 C 192.933 240.269,190.209 240.479,189.231 242.308 M189.776 266.634 C 188.705 267.706,189.218 271.582,190.496 272.072 C 192.058 272.672,193.993 270.249,193.683 268.083 C 193.463 266.548,190.836 265.574,189.776 266.634 M187.692 296.154 C 186.706 297.996,187.888 300.769,189.659 300.769 C 191.073 300.769,192.674 297.450,192.048 295.818 C 191.395 294.115,188.671 294.325,187.692 296.154 M248.970 312.885 C 252.527 333.286,257.239 349.231,259.710 349.231 C 261.072 349.231,261.095 349.359,258.864 344.487 C 256.722 339.807,252.114 321.268,250.770 311.923 C 249.817 305.297,248.897 302.308,247.810 302.308 C 247.434 302.308,247.956 307.067,248.970 312.885 " stroke="none" fill="#ffffff" fill-rule="evenodd"/></g></svg>