<svg width="1304" height="1304" viewBox="0 0 1304 1304" fill="none" xmlns="http://www.w3.org/2000/svg">
<g filter="url(#filter0_d_409_3759)">
<mask id="mask0_409_3759" style="mask-type:alpha" maskUnits="userSpaceOnUse" x="4" y="0" width="1296" height="1296">
<circle cx="651.869" cy="647.869" r="647.869" fill="#D9D9D9"/>
</mask>
<g mask="url(#mask0_409_3759)">
<path d="M1007.04 1182.75C1004.07 1184.87 1000.67 1186.99 997.694 1189.12C994.295 1191.24 991.321 1193.37 987.923 1195.07C984.949 1196.76 982.4 1198.46 979.426 1200.16C979.001 1200.59 978.576 1200.59 978.151 1201.01C968.38 1206.96 958.184 1212.48 947.988 1217.58C945.014 1219.28 941.615 1220.98 938.641 1222.26C938.641 1222.26 938.217 1222.68 937.792 1222.68C934.393 1224.38 930.994 1226.08 927.596 1227.78C920.798 1231.18 913.576 1234.15 906.779 1237.12C903.38 1238.82 899.556 1240.1 896.158 1241.37C892.759 1242.65 888.936 1244.35 885.537 1245.62C882.138 1246.9 878.315 1248.59 874.916 1249.87C874.916 1249.87 874.916 1249.87 874.491 1249.87C871.092 1251.14 867.269 1252.42 863.87 1253.69C856.223 1256.24 848.151 1258.79 840.504 1261.34C837.955 1262.19 834.981 1263.04 832.432 1263.89C824.36 1266.44 816.289 1268.56 808.217 1270.26C805.243 1271.11 802.269 1271.54 798.87 1272.39C791.223 1274.09 783.151 1275.78 775.504 1277.48C773.805 1277.91 772.53 1277.91 770.831 1278.33C768.282 1278.76 765.308 1279.18 762.759 1279.61C758.936 1280.03 755.537 1280.88 751.713 1281.31C750.014 1281.73 748.315 1281.73 746.615 1282.16C744.491 1282.58 741.942 1283.01 739.393 1283.01C732.596 1283.86 725.373 1284.71 718.576 1285.56C716.452 1285.98 713.903 1285.98 711.779 1286.41H711.354C708.38 1286.83 705.406 1286.83 702.432 1287.25C699.458 1287.68 696.485 1287.68 693.511 1287.68C691.811 1287.68 689.687 1288.1 687.988 1288.1C684.589 1288.1 681.615 1288.53 678.642 1288.53C674.393 1288.53 670.57 1288.95 666.321 1288.95C662.073 1288.95 658.249 1288.95 654.001 1288.95C651.027 1288.95 648.053 1288.95 645.079 1288.95C465.798 1286.41 304.785 1210.36 189.655 1089.71C189.655 1089.71 189.655 1089.28 189.23 1089.28C176.485 1077.81 187.53 1016.63 238.936 977.974C303.511 929.118 458.151 898.53 458.151 898.53C458.151 898.53 518.053 888.758 740.243 935.066C870.243 962.255 969.23 1001.76 1024.46 1108.82C1035.93 1130.92 1047.4 1164.9 1007.04 1182.75Z" fill="white"/>
<path d="M741.517 930.392C823.086 946.961 910.177 964.804 977.301 1018.76C999.818 1037.03 1014.69 1063.79 1027.01 1089.71C1032.96 1102.45 1038.9 1115.62 1043.58 1129.64C1046.12 1138.99 1049.95 1149.61 1047.82 1160.65C1047.4 1163.63 1044.85 1167.45 1042.73 1169.58C1032.96 1179.35 1022.33 1185.29 1011.71 1192.94C949.262 1236.27 877.465 1266.86 803.118 1283.01C637.432 1319.12 458.151 1291.08 312.432 1203.99C264.001 1174.67 219.393 1138.99 181.158 1096.93C176.909 1091.83 176.909 1083.33 176.909 1077.81C177.334 1065.07 180.733 1052.75 184.981 1041.27C195.177 1014.93 208.347 988.595 230.863 970.327C247.007 959.281 264.426 949.935 282.269 942.288C338.347 918.497 397.399 901.928 458.151 895.131C463.249 894.706 464.099 901.928 459.001 902.778C400.798 914.673 343.02 932.516 289.066 956.732C269.524 966.503 248.707 975 232.988 990.294C218.118 1006.44 207.497 1026.41 199.001 1046.8C193.478 1059.12 189.654 1078.66 191.354 1088.43C218.118 1120.29 249.556 1148.33 283.543 1172.55C469.622 1302.55 752.138 1311.05 950.112 1202.71C967.955 1192.94 985.373 1181.9 1001.94 1170.42C1010.01 1164.9 1018.51 1160.23 1024.88 1153.86C1025.31 1153.43 1024.88 1153.86 1024.88 1154.28C1024.88 1154.71 1024.46 1155.13 1024.46 1155.13C1024.88 1150.03 1023.18 1143.24 1021.06 1136.44C1013.41 1111.8 1001.09 1085.88 987.922 1063.37C967.105 1029.8 931.844 1008.56 896.158 991.569C871.517 980.098 845.602 971.177 819.262 962.68C792.922 954.183 766.158 946.961 739.393 940.588C732.596 938.889 734.72 929.118 741.517 930.392Z" fill="black"/>
<path d="M1155.31 1447.84L79.1973 1424.05C145.472 1202.71 182.433 1007.71 232.138 977.974C326.452 921.47 411.419 912.549 461.975 907.875C474.72 939.313 523.151 1042.55 623.838 1083.33C721.125 1122.84 778.903 1096.5 787.825 1052.74C793.348 1024.71 775.929 978.823 767.008 963.954C761.91 959.706 758.511 953.333 756.812 946.96L753.413 932.941C760.635 931.242 767.857 929.542 775.08 926.993C852.4 940.588 969.655 1004.31 994.72 1040C1024.88 1082.91 1066.52 1190.39 1064.82 1249.44C1062.27 1345.46 1155.31 1447.84 1155.31 1447.84Z" fill="white"/>
<path d="M1165.5 1452.52C845.177 1447.84 394.851 1443.17 79.1971 1435.1C73.2494 1435.1 68.5762 1430 68.5762 1424.05C102.988 1308.07 130.602 1191.24 167.563 1075.69C172.236 1061.24 177.334 1047.22 183.282 1032.78C193.478 1010.26 203.674 985.196 224.916 969.902C237.236 962.68 250.406 955.457 263.151 949.085C324.753 918.497 393.151 902.778 461.125 897.255C466.223 896.83 470.472 899.804 472.171 904.052C504.458 981.372 563.086 1053.17 645.079 1079.93C685.439 1093.95 757.236 1105.85 776.354 1055.72C782.727 1031.5 773.38 1006.01 764.883 983.072C762.759 978.398 760.635 973.725 758.511 969.902L760.635 972.451C752.563 965.653 747.465 954.183 745.766 943.987L743.642 935.49C742.367 929.542 746.191 923.595 752.138 922.32C759.36 920.621 766.158 918.921 772.955 916.797C832.432 921.046 954.36 981.372 996.419 1023.86C1021.06 1052.32 1035.08 1089.28 1049.1 1123.69C1059.3 1151.31 1068.22 1179.77 1073.31 1209.08C1075.44 1220.13 1076.71 1231.6 1076.71 1243.07C1076.29 1260.07 1077.56 1277.48 1082.24 1294.48C1096.26 1347.58 1127.27 1396.44 1162.53 1438.5L1163.38 1439.35L1163.8 1439.77C1163.8 1439.77 1163.38 1439.35 1165.08 1441.05C1166.35 1444.44 1166.78 1449.54 1165.5 1452.52ZM1145.54 1443.59C1145.11 1444.87 1144.26 1446.57 1144.69 1448.69C1144.69 1450.82 1145.54 1452.52 1146.39 1453.79C1147.66 1455.49 1147.24 1454.64 1147.24 1455.07L1146.81 1454.64C1143.84 1450.39 1137.89 1441.9 1134.92 1437.22C1100.08 1382.42 1065.67 1321.67 1064.39 1254.97C1065.24 1211.21 1051.65 1169.15 1037.2 1128.79C1027.01 1101.6 1015.11 1075.26 999.818 1050.62C995.994 1044.67 992.171 1038.73 987.073 1033.63C971.779 1018.76 953.086 1006.86 934.393 996.242C884.687 968.627 830.733 945.686 774.23 938.464L779.328 938.039C771.681 940.588 764.034 942.287 756.387 943.987L764.883 930.817C767.432 939.738 767.857 950.359 775.079 956.307C779.753 961.83 782.302 969.052 785.276 975C792.073 991.144 796.746 1007.71 799.72 1025.13C807.367 1066.76 782.727 1101.18 741.942 1110.52C707.53 1118.59 671.419 1111.37 638.707 1100.75C550.766 1072.71 487.04 995.817 452.628 912.549L463.674 919.346C396.55 918.497 329.851 931.667 269.099 960.555C255.929 966.928 242.334 974.15 230.014 981.797C212.596 995.817 204.099 1017.91 195.177 1037.88C167.563 1107.55 151.419 1180.62 133.151 1252.84C120.406 1303.82 103.413 1376.05 90.6677 1427.45L80.4716 1413.43C388.053 1419.8 832.857 1433.4 1145.54 1443.59Z" fill="black"/>
<path d="M267.824 1446.14C267.824 1446.14 262.301 1308.5 256.778 1283.01" stroke="black" stroke-width="5.1512" stroke-miterlimit="10" stroke-linecap="round" stroke-linejoin="round"/>
<path d="M1020.63 1446.14C1020.63 1446.14 1007.89 1360.75 1007.89 1345.88C1007.89 1331.44 1018.93 1283.86 1020.63 1242.22" stroke="black" stroke-width="5.1512" stroke-miterlimit="10" stroke-linecap="round" stroke-linejoin="round"/>
<path d="M393.153 1339.08V1288.53L515.081 1338.24C514.657 1338.24 416.519 1340.78 393.153 1339.08Z" fill="white"/>
<path d="M683.739 1174.67L668.445 1491.6C668.445 1491.6 803.119 1583.37 803.119 1580.82C803.119 1578.27 866.844 1466.96 866.844 1466.96L767.432 1161.93C767.432 1161.93 754.687 1175.1 683.739 1174.67Z" fill="black"/>
<path d="M714.329 1072.71C714.329 1072.71 656.127 1127.52 648.48 1141.96C640.833 1156.41 681.192 1179.35 681.192 1179.35C681.192 1179.35 746.192 1192.94 775.506 1166.6C775.506 1166.6 792.074 1148.33 788.676 1130.92C785.702 1113.92 714.329 1072.71 714.329 1072.71Z" fill="black"/>
<path d="M444.555 867.091C444.98 866.667 445.405 866.242 445.829 865.817C450.503 860.294 457.3 856.895 464.947 856.046C500.633 851.797 504.457 855.621 512.104 867.516C549.065 925.294 597.071 1035.75 714.751 1073.14L601.32 1188.69C595.372 1196.34 584.751 1197.61 577.104 1192.09C540.568 1164.9 467.496 1081.63 427.137 980.098C418.64 958.856 416.94 935.49 421.189 913.399C420.339 912.549 437.333 877.287 444.555 867.091Z" fill="white"/>
<path d="M441.581 864.967C447.953 859.02 455.175 853.921 464.097 852.647C475.992 851.372 488.313 848.823 500.633 851.372C513.378 855.196 518.051 869.216 525.273 878.987C557.136 931.242 590.273 984.346 639.13 1021.31C656.548 1035.33 676.515 1045.95 696.908 1054.44C704.555 1057.42 712.626 1059.97 720.274 1063.37C726.646 1066.34 727.921 1075.69 722.398 1079.93C690.96 1105.42 661.221 1133.04 631.908 1161.5C625.11 1168.3 609.391 1184.02 603.443 1189.97C596.646 1198.89 583.051 1200.16 574.555 1193.37L570.306 1189.97C555.862 1178.07 542.692 1164.48 529.947 1150.88C484.489 1100.75 446.254 1043.82 420.764 980.948C411.842 958.431 409.718 932.941 415.241 909.575C421.613 893.856 430.11 878.137 441.581 864.967ZM450.077 870.915C440.731 884.085 432.659 900.229 425.862 915.098L426.287 913.823C423.738 927.843 423.738 942.287 426.711 955.882C429.26 970.327 435.633 983.072 441.156 996.242C452.626 1023.43 467.071 1049.35 482.365 1074.41C497.659 1099.48 515.077 1123.69 534.62 1146.21C547.79 1161.5 561.809 1176.37 577.953 1188.69C579.228 1189.97 580.502 1190.39 582.202 1191.24C588.149 1193.79 595.372 1191.67 599.195 1186.57L613.215 1172.12L627.234 1157.25C655.273 1127.94 682.038 1097.35 707.104 1065.49L711.352 1082.91C680.764 1073.56 651.875 1056.99 626.809 1036.18C577.104 995.817 544.816 939.738 514.228 885.359C510.404 879.412 506.581 871.765 502.757 866.242C501.058 863.693 499.783 862.843 497.234 861.993C487.463 859.444 475.992 861.144 465.796 862.418C458.999 863.268 453.476 866.242 450.077 870.915Z" fill="black"/>
<path d="M833.28 1146.63C830.731 1160.65 820.535 1173.82 803.542 1156.41L713.901 1072.71C713.901 1072.71 766.156 1023.01 753.411 932.942C770.829 929.119 787.398 923.596 802.692 916.374C803.117 917.223 809.065 928.694 815.862 947.811C830.307 987.321 848.575 1059.97 833.28 1146.63Z" fill="white"/>
<path d="M835.831 1147.06C833.282 1167.45 817.988 1175.95 802.269 1160.23L772.105 1132.19L741.942 1104.15L711.779 1076.11C710.079 1074.41 710.079 1071.86 711.354 1070.16C734.72 1042.97 746.615 1006.01 746.615 970.327C746.615 957.581 744.916 945.261 742.792 932.516C741.942 927.418 746.19 922.745 751.713 922.32C768.707 921.895 785.7 919.771 802.694 915.523C803.119 915.098 803.968 915.523 803.968 915.948C837.955 987.32 848.576 1069.31 835.831 1147.06ZM831.158 1146.21C841.354 1070.59 830.308 991.993 795.047 924.444L794.197 923.17C793.772 922.745 793.347 921.895 793.347 921.895L807.792 926.144C791.223 934.215 773.805 939.738 755.962 943.562L764.458 931.242C767.007 957.581 764.883 984.346 757.236 1009.41C749.164 1034.48 736.419 1057.42 717.301 1076.11V1069.74C732.596 1083.76 762.759 1112.22 777.628 1126.24L807.367 1154.71C817.988 1165.75 828.184 1161.5 831.158 1146.21Z" fill="black"/>
<path d="M781.448 1043.4C772.526 1087.16 714.748 1113.5 617.461 1073.99C516.35 1033.2 472.592 935.915 461.546 907.026C521.448 794.869 479.814 717.124 479.814 717.124C617.886 705.229 738.539 866.667 738.539 866.667L757.232 946.536C758.932 953.333 762.33 959.281 767.428 963.529C776.35 979.248 786.971 1015.36 781.448 1043.4Z" fill="white"/>
<path d="M459.423 908.301C467.495 895.98 472.593 881.536 475.992 867.516C482.364 838.203 484.489 808.464 484.913 778.725V767.68C483.639 756.634 479.815 745.163 475.567 734.967C470.044 721.373 490.011 712.876 496.384 726.471C497.234 728.17 497.234 731.144 497.234 732.843C498.508 790.621 501.057 864.967 464.521 912.974C461.972 915.523 456.874 911.699 459.423 908.301Z" fill="black"/>
<path d="M743.212 865.817C749.585 869.641 751.709 874.739 752.559 879.837C755.108 890.033 754.258 901.079 756.807 911.7C758.931 921.896 765.304 931.667 767.003 942.288C769.128 953.334 775.5 976.7 778.049 988.17C778.899 990.719 777.199 993.693 774.226 994.118C772.526 994.543 771.252 994.118 769.977 993.268C764.454 988.595 761.905 983.922 758.507 977.974C752.984 967.778 749.16 958.432 745.762 946.961C742.788 936.765 744.062 925.719 741.513 915.098C739.389 904.902 733.441 895.131 731.317 884.51C730.043 879.412 729.618 873.889 733.441 867.517C735.99 864.968 740.239 864.118 743.212 865.817Z" fill="black"/>
<path d="M773.802 977.974C692.658 973.725 626.384 948.235 561.809 833.104C616.188 881.111 680.338 899.379 747.887 907.876L756.809 946.961C758.508 953.758 768.704 973.725 773.802 977.974Z" fill="black"/>
<path d="M770.405 962.255C784.85 989.444 793.347 1023.43 784.425 1053.59C777.628 1074.84 758.085 1090.56 736.843 1096.5C687.562 1109.67 630.634 1088.86 586.876 1065.49C532.922 1035.33 492.987 984.771 467.497 929.542C465.798 925.294 471.745 921.895 474.294 926.144C483.216 943.987 493.412 961.405 504.882 977.124C516.353 993.268 529.523 1008.14 544.392 1021.31C587.726 1060.39 646.353 1084.61 704.981 1084.61C765.307 1082.91 788.249 1051.05 774.229 992.418C772.105 983.072 768.706 973.301 764.033 965.229C761.484 961.83 767.856 958.006 770.405 962.255Z" fill="black"/>
<path d="M934.816 452.026C942.463 487.712 916.973 525.948 916.973 621.111C916.973 718.399 899.129 824.183 825.633 897.68C762.332 960.98 689.685 958.431 604.293 891.732C592.397 882.386 550.763 850.948 540.142 840.327C527.822 828.007 521.025 819.085 515.077 809.739C509.979 801.242 511.254 751.961 504.031 740.49C485.339 709.477 481.515 743.039 457.299 715.85C423.737 679.314 383.378 605.817 403.345 475.817C435.633 265.098 602.593 240.458 726.221 263.824C850.698 287.614 914.424 358.137 934.816 452.026Z" fill="white"/>
<path d="M478.541 753.66C468.77 737.516 456.449 723.072 444.979 708.202C433.508 692.484 424.162 675.915 416.515 658.072C373.181 553.137 379.554 415.915 456.449 327.549C509.129 267.222 592.397 247.255 668.868 251.503C745.338 256.176 824.783 275.719 881.286 330.948C913.998 362.81 934.815 405.294 944.162 449.477C947.136 463.497 945.011 478.791 941.613 491.961C931.842 528.921 922.495 564.183 921.645 602.418C922.07 659.346 920.371 717.549 903.802 772.353C891.907 808.889 877.887 845.425 855.796 877.287C832.855 909.575 798.443 935.49 758.933 943.137C679.489 959.281 605.142 909.15 552.462 854.771C550.338 852.222 553.312 849.248 555.861 850.948C586.024 873.889 617.038 895.131 650.6 909.575C747.462 954.183 827.757 912.974 870.24 819.51C905.926 751.536 916.123 678.039 913.149 601.993C913.149 582.876 913.998 563.758 916.547 544.64C919.096 517.026 928.443 489.412 928.018 462.222C920.796 418.039 900.404 375.555 869.815 342.843C797.168 265.948 657.822 243.431 560.109 278.268C444.979 319.052 413.966 435.033 407.593 545.915C403.345 612.189 422.887 677.189 473.018 722.647L492.985 743.464C499.783 752.81 485.338 763.856 478.541 753.66Z" fill="black"/>
<path d="M528.672 618.562C528.672 618.562 515.502 554.837 453.476 562.484C399.946 569.281 381.254 697.582 502.757 733.268" fill="white"/>
<path d="M497.234 677.614C487.463 672.092 480.666 662.745 480.241 651.275C480.666 642.778 481.94 633.007 479.816 624.51C478.541 616.438 470.045 614.314 463.672 614.739C456.875 616.013 452.626 624.51 451.352 631.307C451.352 631.732 450.927 633.007 450.927 633.431C450.502 635.556 447.103 635.556 446.254 633.431C440.731 616.863 453.051 598.595 470.894 600.719C495.96 602.418 499.358 628.758 494.685 648.726C492.136 657.222 495.535 664.869 500.208 672.092L501.058 673.366C503.182 675.915 499.783 679.314 497.234 677.614Z" fill="black"/>
<path d="M837.103 573.529C843.476 603.693 855.371 631.732 870.241 658.072C883.411 690.359 849.424 720.947 819.26 719.673C815.862 719.673 815.437 715 818.411 714.15C837.528 708.202 854.947 695.457 857.92 675.915C859.195 669.967 857.496 664.869 854.522 659.771C840.502 633.431 832.005 603.268 834.13 573.529C834.13 571.405 837.103 571.405 837.103 573.529Z" fill="black"/>
<path d="M526.549 618.987C516.777 593.921 495.536 570.13 467.072 570.555C464.523 570.13 460.274 570.98 457.725 570.98C450.503 571.405 444.555 573.954 439.032 579.052C411.843 606.241 416.516 654.248 438.608 684.411C446.255 695.032 456.026 704.379 467.072 712.026C478.117 719.673 490.438 725.621 503.608 730.719C506.581 731.568 505.307 736.241 502.333 735.817C473.869 729.869 446.679 715.849 427.987 692.483C399.098 657.647 393.15 599.444 427.562 565.457C435.209 558.66 445.83 553.562 456.451 553.562C459.849 553.562 464.947 552.712 468.346 553.562C486.189 554.411 503.183 563.333 514.228 577.353C524 589.248 529.523 603.692 531.222 618.137C531.222 620.686 527.398 621.536 526.549 618.987Z" fill="black"/>
<path d="M808.639 760.033C801.417 765.131 790.796 760.882 783.149 764.281C777.626 765.98 768.705 773.628 755.959 772.778C745.763 771.928 740.665 766.83 732.169 763.007C723.247 760.033 713.901 754.51 707.953 747.288C706.678 746.013 706.678 744.314 707.953 743.039C709.652 741.34 711.352 742.614 713.051 743.464C716.875 745.588 719.848 747.288 722.822 748.137C725.796 748.987 728.77 748.137 733.443 748.137C738.116 747.713 744.914 749.837 749.162 753.235C752.136 755.36 755.535 756.634 758.084 757.059C764.881 758.333 773.378 752.811 780.6 751.961C785.698 751.111 791.221 751.536 795.469 752.811C799.718 754.085 802.692 754.935 806.09 754.085C809.914 753.235 812.038 758.333 808.639 760.033Z" fill="black"/>
<path d="M741.09 528.497C750.436 529.771 757.658 520 754.26 510.654C752.56 505.556 749.586 500.883 744.913 497.909C730.469 488.987 676.514 488.137 648.05 508.53C622.56 527.222 698.606 522.549 741.09 528.497Z" fill="black"/>
<path d="M858.769 533.17C851.122 533.17 846.449 523.399 850.273 515.327C852.397 511.079 855.371 507.255 859.619 505.131C872.789 498.758 908.05 502.582 923.769 524.249C937.789 543.366 894.031 532.745 858.769 533.17Z" fill="black"/>
<path d="M727.072 584.575C712.203 597.745 689.261 597.745 671.418 590.948C668.444 589.673 651.451 582.026 654.85 577.778C655.274 577.353 656.124 576.928 656.549 576.928C668.444 577.353 679.49 578.628 690.961 579.477C702.431 580.327 712.627 579.902 724.523 579.477C727.497 579.477 729.196 582.876 727.072 584.575Z" fill="black"/>
<path d="M894.88 591.798C881.285 607.517 853.671 605.392 840.926 590.098C839.651 588.824 840.926 586.275 842.625 586.7C847.298 587.124 851.547 587.974 855.795 588.399C868.54 590.523 879.161 590.098 892.756 589.673C894.88 588.824 895.73 590.948 894.88 591.798Z" fill="black"/>
<path d="M733.021 232.811C542.695 214.543 479.394 278.268 454.329 300.785C419.067 331.798 365.538 454.575 367.662 524.673C370.211 622.386 448.381 725.621 451.78 730.719C469.198 756.634 487.041 772.353 491.714 777.876C489.165 768.53 484.917 734.968 488.74 729.02C382.531 688.236 401.649 569.706 453.479 562.909C507.858 556.111 524.851 604.543 527.825 616.438C527.825 616.438 527.825 617.713 528.25 619.837C528.675 619.837 529.1 620.262 529.525 620.262C548.217 626.634 565.636 607.941 559.263 589.673C549.492 562.909 538.446 531.896 536.747 511.928C534.198 454.151 557.564 388.301 729.623 397.647C751.714 398.922 770.832 402.321 789.525 406.144C798.871 408.693 823.936 418.464 815.44 442.68C807.368 466.046 790.799 446.928 786.126 449.053C783.577 450.327 799.721 471.994 823.512 467.745C843.054 464.347 858.773 444.379 851.976 418.039C858.773 418.889 865.995 419.739 873.217 420.588C919.1 423.987 960.309 388.301 959.034 342.419C957.76 295.687 914.002 250.229 733.021 232.811Z" fill="black"/>
<path d="M492.99 779.575C492.99 779.15 492.566 778.725 491.716 777.451C492.566 780 492.99 780.849 492.99 779.575Z" fill="black"/>
<path d="M1228.38 358.137C1486.25 854.771 1032.95 1415.13 492.562 1278.33C249.98 1218.01 54.9803 1007.71 14.6208 760.882C-31.2615 515.327 79.6208 251.503 286.941 112.582C571.157 -82.8433 964.98 -17.8433 1168.48 261.699C1169.75 262.974 1169.33 265.098 1167.63 266.372C1166.35 267.647 1164.23 267.222 1162.95 265.523C1134.91 229.412 1103.05 196.699 1068.22 167.385C1010.86 118.529 943.738 80.2939 872.791 54.3789C511.68 -76.4708 115.307 141.046 36.2875 518.725C-52.9282 941.863 306.908 1331.44 735.993 1273.24C1066.94 1231.6 1312.92 926.144 1285.73 593.921C1279.78 513.627 1258.54 434.183 1223.28 361.111C1222.43 359.836 1223.28 358.137 1224.56 357.287C1225.83 356.438 1227.53 356.863 1228.38 358.137Z" fill="black"/>
</g>
</g>
<defs>
<filter id="filter0_d_409_3759" x="0" y="0" width="1308" height="1308" filterUnits="userSpaceOnUse" color-interpolation-filters="sRGB">
<feFlood flood-opacity="0" result="BackgroundImageFix"/>
<feColorMatrix in="SourceAlpha" type="matrix" values="0 0 0 0 0 0 0 0 0 0 0 0 0 0 0 0 0 0 127 0" result="hardAlpha"/>
<feOffset dy="4"/>
<feGaussianBlur stdDeviation="2"/>
<feComposite in2="hardAlpha" operator="out"/>
<feColorMatrix type="matrix" values="0 0 0 0 0 0 0 0 0 0 0 0 0 0 0 0 0 0 0.25 0"/>
<feBlend mode="normal" in2="BackgroundImageFix" result="effect1_dropShadow_409_3759"/>
<feBlend mode="normal" in="SourceGraphic" in2="effect1_dropShadow_409_3759" result="shape"/>
</filter>
</defs>
</svg>
