<svg id="svg" xmlns="http://www.w3.org/2000/svg" xmlns:xlink="http://www.w3.org/1999/xlink" width="400" height="400" viewBox="0, 0, 400,400"><g id="svgg"><path id="path0" d="M180.997 60.726 C 179.330 61.380,178.754 67.124,180.000 70.669 C 180.423 71.873,180.769 73.418,180.769 74.101 C 180.769 77.747,184.263 85.158,185.873 84.930 C 188.469 84.561,184.612 60.149,182.000 60.412 C 181.852 60.427,181.401 60.568,180.997 60.726 M230.393 64.339 C 228.581 65.252,227.526 66.121,226.372 67.649 C 225.512 68.789,224.160 70.410,223.368 71.251 C 220.263 74.548,218.160 81.147,220.026 81.739 C 220.753 81.970,221.154 81.738,222.282 80.436 C 223.037 79.564,225.498 76.860,227.752 74.426 C 233.429 68.295,235.130 65.164,233.555 63.739 C 232.894 63.141,232.698 63.178,230.393 64.339 M238.269 96.357 C 230.046 99.992,226.862 102.958,229.765 104.281 C 230.550 104.639,231.271 104.416,234.757 102.734 C 236.998 101.654,238.973 100.769,239.145 100.769 C 239.932 100.769,246.596 97.222,246.798 96.695 C 247.555 94.721,242.431 94.518,238.269 96.357 M186.154 100.361 C 184.924 100.738,180.903 102.760,177.692 104.616 C 176.317 105.410,170.087 108.741,163.846 112.018 C 152.953 117.738,138.129 125.766,135.453 127.396 C 133.112 128.821,133.267 131.814,136.726 152.011 L 138.061 159.808 134.896 162.834 C 130.020 167.496,124.220 171.650,118.427 174.630 C 115.552 176.109,112.796 177.750,112.302 178.275 L 111.404 179.231 112.529 179.226 C 118.305 179.203,127.441 173.633,138.116 163.625 C 140.316 161.563,142.894 159.378,143.846 158.769 L 145.577 157.661 146.250 158.489 C 149.914 162.992,139.564 177.261,124.951 187.853 C 120.191 191.304,119.641 192.094,121.506 192.798 C 122.652 193.230,122.692 193.325,122.686 195.565 C 122.655 206.374,115.568 216.567,104.038 222.387 C 99.963 224.444,98.355 225.461,97.863 226.294 L 97.198 227.420 99.007 227.216 C 102.491 226.824,110.962 222.176,115.288 218.284 L 117.308 216.467 117.308 217.597 C 117.308 223.035,134.734 219.394,139.609 212.937 C 142.638 208.926,144.416 203.794,143.034 203.054 C 141.909 202.452,141.046 203.358,139.813 206.440 C 137.216 212.927,134.072 215.123,124.494 217.140 C 119.615 218.168,119.223 217.678,122.515 214.669 C 123.973 213.336,125.096 212.646,126.073 212.483 C 130.704 211.707,134.705 209.114,141.251 202.643 C 146.800 197.158,148.001 191.306,143.959 189.450 C 143.198 189.101,143.208 189.033,144.440 186.373 C 146.676 181.549,146.382 179.387,143.291 177.921 L 141.876 177.249 142.869 175.948 C 145.064 173.069,147.131 169.677,148.127 167.317 C 148.889 165.511,149.423 164.760,150.070 164.586 C 150.560 164.455,151.690 163.975,152.581 163.520 C 154.733 162.420,155.773 162.433,155.755 163.558 C 155.735 164.846,154.268 166.391,152.247 167.254 C 149.735 168.327,149.092 170.705,151.466 170.143 C 156.717 168.899,159.831 164.817,158.057 161.502 C 157.822 161.063,157.687 160.655,157.757 160.596 C 158.480 159.985,163.350 157.281,175.993 150.471 C 193.278 141.160,197.511 138.721,197.832 137.883 C 197.959 137.551,197.641 134.560,197.124 131.236 C 196.607 127.912,195.730 121.644,195.176 117.308 C 193.558 104.652,192.605 100.769,191.116 100.769 C 190.019 100.769,191.002 111.341,193.881 130.505 C 194.320 133.427,194.595 136.036,194.494 136.301 C 194.392 136.567,190.267 138.918,185.327 141.527 C 169.949 149.650,160.092 154.971,155.777 157.478 L 151.625 159.892 151.418 158.349 C 150.935 154.746,146.601 153.538,142.592 155.888 C 141.589 156.475,140.768 156.818,140.767 156.651 C 140.766 156.483,140.253 153.170,139.627 149.289 C 138.176 140.298,137.109 131.457,137.387 130.733 C 137.609 130.154,161.680 116.638,168.846 113.068 C 178.914 108.054,185.518 103.883,187.045 101.575 C 188.106 99.973,187.980 99.801,186.154 100.361 M181.346 108.486 C 180.712 108.920,176.421 111.173,171.811 113.493 C 163.631 117.610,162.102 118.706,163.078 119.750 C 163.424 120.119,181.059 111.608,182.981 110.144 C 185.439 108.271,183.918 106.728,181.346 108.486 M151.107 130.905 C 145.636 133.293,142.463 135.860,143.310 137.212 C 144.009 138.326,145.232 138.198,147.449 136.780 C 149.713 135.332,150.000 135.429,150.000 137.638 C 150.000 139.127,149.060 140.263,146.938 141.338 L 145.084 142.278 144.655 140.575 C 143.594 136.361,141.626 136.758,142.317 141.047 C 143.170 146.349,142.726 146.286,150.841 142.239 L 157.259 139.038 157.283 135.455 C 157.325 129.312,156.368 128.607,151.107 130.905 M178.141 134.887 C 175.413 136.425,175.207 136.715,175.650 138.399 L 175.962 139.583 178.462 138.139 C 180.661 136.869,180.976 136.541,181.086 135.414 C 181.274 133.474,180.798 133.389,178.141 134.887 M170.285 139.528 C 167.630 140.971,167.394 141.350,167.925 143.327 C 168.256 144.563,173.206 141.779,173.390 140.252 C 173.646 138.132,173.092 138.003,170.285 139.528 M162.177 144.285 C 159.953 145.605,159.580 145.975,159.768 146.673 C 159.890 147.128,159.992 147.816,159.995 148.202 C 159.999 148.806,160.393 148.687,162.788 147.358 C 164.322 146.508,165.560 145.629,165.538 145.406 C 165.517 145.183,165.474 144.481,165.442 143.846 C 165.370 142.398,165.351 142.401,162.177 144.285 M154.325 148.948 C 151.600 150.507,150.893 151.946,152.137 153.400 C 152.276 153.562,157.241 150.807,157.455 150.450 C 157.540 150.308,157.498 149.553,157.362 148.771 L 157.115 147.350 154.325 148.948 M123.077 160.043 C 99.817 163.072,96.783 165.281,86.709 186.527 C 72.283 216.948,65.200 227.380,50.760 239.469 C 42.043 246.767,42.050 249.153,50.769 243.048 C 62.390 234.914,74.757 218.356,84.861 197.404 C 99.956 166.106,100.046 166.026,123.462 163.089 C 133.893 161.780,137.125 160.892,135.577 159.760 C 134.586 159.036,130.021 159.139,123.077 160.043 M264.231 174.992 C 257.565 176.756,249.652 181.694,242.326 188.660 C 240.306 190.581,235.279 195.102,231.154 198.707 C 219.174 209.178,217.109 212.517,220.547 215.857 L 221.864 217.135 209.874 229.447 C 183.146 256.893,180.330 260.282,179.184 266.387 C 178.641 269.282,178.955 276.304,179.708 278.097 L 180.282 279.463 174.077 278.412 C 164.299 276.755,148.720 272.652,144.952 270.741 C 140.015 268.237,138.372 259.615,142.831 259.615 C 143.284 259.615,146.856 260.398,150.769 261.354 C 161.287 263.923,178.077 265.214,178.077 263.452 C 178.077 262.800,174.616 261.931,169.615 261.328 C 150.821 259.061,138.075 253.675,138.077 248.000 C 138.078 246.693,140.024 242.847,142.127 240.000 C 150.407 228.785,177.534 200.142,185.577 194.122 C 194.947 187.107,196.740 186.921,217.474 190.801 C 226.995 192.583,236.093 192.836,233.207 191.239 C 229.688 189.291,207.453 185.351,199.423 185.253 C 189.016 185.125,179.651 192.763,151.159 224.615 C 134.757 242.952,132.119 249.351,134.789 264.325 C 136.144 271.929,142.254 274.839,168.931 280.590 C 179.967 282.969,182.679 282.629,187.917 278.209 C 194.057 273.029,211.420 255.084,214.665 250.566 C 215.475 249.437,216.186 248.846,216.735 248.846 C 218.053 248.846,221.929 246.728,224.101 244.821 C 225.895 243.244,226.272 243.077,228.029 243.077 C 232.192 243.077,240.646 240.939,244.038 239.028 C 245.342 238.294,246.339 238.130,250.577 237.956 C 262.284 237.476,265.302 235.803,283.654 219.620 C 286.192 217.381,291.255 212.991,294.904 209.864 C 301.611 204.117,302.461 203.077,300.448 203.077 C 298.551 203.077,295.474 205.476,280.029 218.994 C 265.422 231.779,263.856 232.859,257.974 234.202 C 254.330 235.035,250.470 235.507,250.991 235.058 C 251.186 234.889,252.904 233.554,254.808 232.091 C 259.975 228.120,264.291 223.881,264.152 222.913 C 263.903 221.166,262.502 221.766,258.656 225.266 C 247.832 235.118,236.989 240.769,228.911 240.769 C 228.682 240.769,238.293 231.541,242.308 227.907 C 245.958 224.602,249.957 221.585,252.757 220.024 C 255.692 218.387,256.041 217.926,254.933 217.150 C 252.135 215.190,247.271 218.364,234.890 230.225 C 218.674 245.762,216.311 247.485,215.523 244.346 C 214.207 239.102,227.135 223.460,244.590 209.176 C 247.008 207.196,250.474 204.188,252.292 202.491 C 255.261 199.717,258.672 197.543,261.346 196.720 C 262.546 196.351,261.012 195.381,259.253 195.397 C 255.609 195.431,251.865 197.557,243.134 204.553 C 231.770 213.658,228.171 215.601,224.530 214.596 C 220.328 213.436,222.600 210.054,234.423 199.867 C 237.385 197.316,241.712 193.414,244.038 191.197 C 260.831 175.198,268.935 173.868,297.878 182.365 C 321.432 189.279,332.874 190.845,342.756 188.506 L 344.165 188.173 344.959 192.452 C 346.173 199.001,346.549 202.640,346.807 210.332 L 347.044 217.395 345.734 217.129 C 345.013 216.983,340.356 215.500,335.385 213.834 C 320.249 208.762,308.721 206.318,306.226 207.654 C 304.413 208.624,305.085 208.979,310.296 209.807 C 315.116 210.572,324.478 213.247,332.777 216.229 L 339.328 218.583 339.058 222.657 C 337.982 238.933,332.974 241.675,329.630 227.819 C 328.417 222.789,328.233 222.432,327.294 223.281 C 324.435 225.869,329.947 241.640,334.729 244.557 C 335.407 244.970,337.689 245.765,339.800 246.322 C 345.902 247.934,360.931 254.836,371.135 260.713 C 377.546 264.405,382.705 265.988,379.408 263.251 C 373.268 258.155,355.434 248.559,344.106 244.256 L 343.019 243.843 344.381 242.253 C 350.707 234.862,352.098 209.926,347.309 189.728 C 346.490 186.275,344.392 180.530,343.821 180.177 C 342.849 179.576,343.755 179.417,346.689 179.675 C 354.365 180.347,363.663 183.643,378.218 190.850 C 390.462 196.913,391.923 197.397,391.923 195.387 C 391.923 192.452,363.873 180.241,350.385 177.304 C 346.963 176.559,338.197 176.457,336.863 177.146 C 334.504 178.367,332.242 183.153,332.861 185.618 L 333.109 186.607 330.112 186.346 C 321.170 185.568,314.727 184.190,299.231 179.744 C 279.773 174.162,271.574 173.048,264.231 174.992 M142.502 181.156 C 143.181 181.907,143.158 182.013,141.629 185.100 C 137.782 192.863,134.511 195.534,127.404 196.718 L 125.769 196.991 125.724 195.515 C 125.699 194.703,125.563 193.519,125.422 192.885 C 125.102 191.446,126.582 190.253,129.234 189.812 C 132.635 189.246,136.416 186.579,139.049 182.889 C 140.974 180.192,141.425 179.966,142.502 181.156 M338.446 182.084 C 338.899 183.019,339.370 184.403,339.492 185.161 L 339.716 186.538 337.166 186.538 C 334.121 186.538,334.058 186.371,335.753 182.788 C 337.106 179.929,337.370 179.860,338.446 182.084 M143.445 194.346 C 143.507 198.430,131.556 208.299,125.392 209.256 C 121.968 209.787,122.104 210.047,123.662 205.950 C 124.384 204.053,124.980 202.284,124.987 202.019 C 124.994 201.755,125.067 201.538,125.150 201.538 C 130.927 201.538,137.221 198.016,140.638 192.869 L 142.068 190.715 142.749 191.992 C 143.123 192.695,143.437 193.754,143.445 194.346 M359.611 191.931 C 359.106 192.875,359.205 193.047,361.474 195.170 C 362.461 196.094,363.875 197.905,364.615 199.193 C 366.339 202.194,368.462 202.907,368.462 200.486 C 368.462 196.557,360.997 189.342,359.611 191.931 M197.885 191.868 C 195.048 192.800,187.826 198.238,184.327 202.077 C 181.992 204.640,181.607 206.446,183.176 207.475 C 185.250 208.834,209.034 213.808,210.594 213.209 C 212.179 212.601,210.367 211.065,207.487 210.576 C 204.884 210.134,204.562 209.962,204.044 208.730 C 202.481 205.012,212.403 198.067,219.100 198.191 C 220.335 198.214,221.767 198.001,222.282 197.719 L 223.219 197.205 221.898 196.535 C 221.171 196.166,218.327 195.418,215.577 194.872 C 212.827 194.327,208.067 193.355,205.000 192.713 C 199.097 191.476,199.082 191.475,197.885 191.868 M379.850 210.371 C 375.103 213.330,374.341 214.188,375.462 215.308 C 376.262 216.108,377.132 215.827,380.594 213.654 C 382.447 212.490,384.104 211.538,384.276 211.538 C 384.945 211.538,385.422 210.019,385.000 209.231 C 384.365 208.044,383.150 208.313,379.850 210.371 M166.955 216.113 C 165.033 218.540,165.134 218.634,171.069 219.921 L 174.588 220.683 176.134 218.635 C 177.907 216.287,178.225 216.595,172.793 215.398 C 168.192 214.385,168.338 214.367,166.955 216.113 M179.609 219.238 C 177.945 221.340,178.232 221.717,182.185 222.628 C 187.466 223.845,187.137 223.889,188.834 221.743 C 190.653 219.441,190.941 219.753,185.946 218.624 C 180.734 217.446,181.053 217.415,179.609 219.238 M360.256 217.949 C 359.322 218.883,362.465 225.409,363.991 225.705 C 366.180 226.128,366.193 224.362,364.029 220.665 C 362.344 217.787,361.224 216.981,360.256 217.949 M192.711 222.537 C 190.888 224.614,191.196 225.045,195.196 226.023 C 200.110 227.223,200.357 227.193,201.827 225.193 C 203.517 222.896,203.592 222.985,199.122 222.013 C 194.057 220.913,194.144 220.906,192.711 222.537 M158.235 226.748 C 157.213 227.995,156.921 228.614,157.217 228.909 C 157.584 229.277,164.580 231.151,165.591 231.153 C 166.008 231.154,169.009 227.342,168.775 227.108 C 168.664 226.997,160.145 225.000,159.782 225.000 C 159.719 225.000,159.022 225.786,158.235 226.748 M109.804 228.558 C 104.770 236.158,98.049 241.286,87.774 245.370 C 80.037 248.445,58.832 275.415,54.821 287.283 L 53.984 289.758 52.530 286.129 C 47.190 272.801,43.528 256.793,43.505 246.679 C 43.496 242.776,42.929 240.992,42.115 242.308 C 41.985 242.519,41.495 242.692,41.027 242.692 C 39.632 242.692,30.673 249.988,24.038 256.526 C 20.654 259.862,16.138 263.897,14.004 265.494 C 10.026 268.469,8.077 270.405,8.077 271.381 C 8.077 271.958,8.487 271.841,11.635 270.371 C 15.069 268.766,16.844 272.865,15.527 279.361 C 13.975 287.021,17.092 294.794,22.864 297.661 C 28.725 300.572,31.459 305.864,32.916 317.115 C 33.808 323.997,36.109 329.728,38.948 332.135 L 40.012 333.037 38.874 334.692 C 37.762 336.307,37.558 336.984,37.648 338.750 C 37.735 340.456,38.685 339.739,42.966 334.735 C 44.983 332.378,52.395 325.580,58.462 320.523 C 71.564 309.601,75.130 300.024,71.753 284.818 C 70.822 280.622,67.961 276.549,68.288 279.883 C 68.366 280.688,68.654 283.510,68.927 286.154 C 69.936 295.935,69.287 304.560,67.489 305.250 C 65.202 306.127,56.154 294.735,56.154 290.978 C 56.154 289.011,61.461 279.495,66.648 272.162 C 71.186 265.747,85.210 249.625,86.267 249.608 C 87.435 249.589,96.420 245.279,99.340 243.336 C 106.066 238.860,113.586 229.663,112.866 226.792 C 112.460 225.177,111.786 225.565,109.804 228.558 M170.918 229.836 C 168.964 232.221,169.624 232.654,177.308 234.035 C 178.511 234.251,182.205 230.856,181.474 230.206 C 181.404 230.143,179.615 229.712,177.500 229.247 C 175.385 228.783,173.368 228.323,173.018 228.226 C 172.604 228.110,171.872 228.672,170.918 229.836 M184.106 233.053 C 182.513 234.816,182.405 235.205,183.365 235.716 C 184.070 236.091,191.592 237.798,191.708 237.609 C 191.745 237.549,192.298 236.808,192.938 235.962 C 193.578 235.115,194.219 234.221,194.361 233.975 C 194.540 233.666,193.453 233.265,190.868 232.689 C 188.804 232.229,186.756 231.771,186.317 231.671 C 185.741 231.539,185.125 231.925,184.106 233.053 M148.314 237.309 C 146.152 239.702,146.228 239.775,152.256 241.082 L 155.808 241.852 157.352 239.898 C 159.173 237.595,159.281 237.706,154.124 236.586 C 149.423 235.565,149.948 235.500,148.314 237.309 M160.985 240.461 C 159.192 242.557,159.297 242.734,162.914 243.690 C 168.717 245.224,168.455 245.249,170.090 242.995 C 171.822 240.607,172.102 240.909,167.100 239.778 C 161.997 238.625,162.617 238.555,160.985 240.461 M375.769 240.220 C 372.560 241.240,370.205 242.774,370.072 243.929 C 369.899 245.432,371.322 245.707,373.509 244.591 C 374.430 244.121,376.051 243.443,377.111 243.084 C 379.148 242.394,379.781 241.319,378.829 240.171 C 378.275 239.504,378.005 239.508,375.769 240.220 M173.878 243.805 C 172.084 246.071,172.572 246.489,178.384 247.665 C 181.438 248.282,181.675 248.217,183.051 246.380 C 184.783 244.069,184.889 244.205,180.577 243.222 C 175.393 242.040,175.268 242.051,173.878 243.805 " stroke="none" fill="#000000" fill-rule="evenodd"></path></g></svg>