<svg id="svg" xmlns="http://www.w3.org/2000/svg" xmlns:xlink="http://www.w3.org/1999/xlink" width="400" height="400" viewBox="0, 0, 400,400"><g id="svgg"><path id="path0" d="M296.343 59.867 C 295.287 60.428,292.952 61.794,291.154 62.904 C 284.816 66.814,278.928 70.149,268.331 75.831 L 257.623 81.573 255.924 80.007 C 251.514 75.941,245.000 78.068,245.000 83.573 L 245.000 85.108 247.408 82.554 C 250.353 79.430,251.521 79.273,254.135 81.654 C 255.336 82.748,255.298 82.812,252.596 84.241 C 209.924 106.809,195.413 117.903,194.024 129.024 C 193.331 134.569,194.319 134.366,196.820 128.448 C 200.610 119.482,204.898 115.196,219.038 106.240 C 227.688 100.761,255.262 85.385,256.437 85.385 C 257.376 85.385,260.784 95.209,261.734 100.658 C 262.620 105.738,262.591 105.892,260.481 107.247 C 257.588 109.106,255.686 111.249,255.835 112.483 L 255.962 113.525 257.500 112.340 C 263.205 107.945,262.880 107.990,262.561 111.635 C 261.961 118.486,260.665 119.744,257.114 116.922 C 255.428 115.582,254.858 115.603,254.690 117.011 C 254.549 118.187,256.532 120.656,257.891 120.998 C 258.674 121.194,258.736 121.352,258.434 122.404 C 257.709 124.931,258.932 126.923,261.207 126.923 C 264.400 126.923,266.546 122.914,264.694 120.409 L 263.896 119.329 264.655 116.890 C 265.196 115.152,265.420 113.310,265.433 110.481 L 265.451 106.511 269.698 104.382 C 272.479 102.987,274.075 102.382,274.322 102.630 C 275.355 103.663,276.296 111.937,275.441 112.465 C 274.959 112.763,274.108 111.961,272.731 109.910 C 271.573 108.183,270.162 107.017,269.741 107.438 C 268.769 108.410,272.452 116.965,274.241 117.890 C 278.355 120.017,292.336 114.252,311.471 102.537 C 313.233 101.459,315.344 99.855,316.163 98.973 L 317.652 97.368 316.723 95.442 C 315.429 92.759,313.841 91.075,310.844 89.205 C 305.871 86.102,305.562 85.451,306.738 80.577 C 308.209 74.488,306.756 70.394,302.612 68.948 C 297.965 67.326,295.922 63.541,298.516 61.361 C 301.664 58.716,300.288 57.770,296.343 59.867 M267.611 82.981 C 270.552 86.970,274.615 96.020,274.615 98.584 C 274.615 99.066,266.082 103.846,265.221 103.846 C 265.100 103.846,264.997 103.457,264.994 102.981 C 264.972 99.781,262.364 90.851,260.194 86.541 L 258.852 83.877 262.022 82.181 C 263.766 81.248,265.306 80.462,265.444 80.434 C 265.583 80.407,266.558 81.553,267.611 82.981 M250.420 110.755 C 246.324 125.723,238.056 133.163,222.330 136.034 C 220.675 136.336,220.514 136.499,217.248 141.154 C 208.116 154.169,201.368 160.157,198.501 157.788 C 197.371 156.854,197.831 155.417,200.813 150.575 C 205.461 143.029,206.422 141.317,207.244 139.120 C 208.173 136.637,208.394 132.908,207.596 133.172 C 207.077 133.344,207.043 133.406,204.515 138.846 C 203.581 140.856,201.638 144.404,200.197 146.731 C 194.105 156.567,193.942 159.576,199.436 160.806 C 205.289 162.115,215.986 152.875,221.723 141.554 L 222.624 139.775 227.200 138.523 C 232.992 136.938,235.421 135.807,237.914 133.539 C 239.006 132.544,240.958 130.812,242.252 129.690 C 248.288 124.452,252.308 116.452,252.308 109.678 C 252.308 105.275,251.848 105.537,250.420 110.755 M283.654 127.107 C 271.068 129.362,263.055 131.323,260.883 132.682 C 259.912 133.289,261.305 133.101,270.429 131.392 C 290.487 127.635,292.397 127.651,294.450 131.597 L 294.981 132.617 292.586 133.024 C 279.249 135.291,265.333 135.970,252.272 134.990 C 242.754 134.276,239.615 134.379,239.615 135.407 C 239.615 137.012,263.957 138.542,276.969 137.755 C 287.558 137.115,301.217 134.745,305.192 132.859 C 308.455 131.310,305.259 130.183,300.847 131.326 C 297.506 132.192,297.451 132.173,296.714 129.904 C 295.359 125.733,293.522 125.340,283.654 127.107 M108.294 134.996 C 101.429 135.868,100.874 136.563,101.453 143.566 C 101.701 146.565,101.779 149.138,101.625 149.284 C 101.388 149.509,95.818 151.378,92.692 152.281 C 90.987 152.774,91.309 154.015,96.746 167.923 C 99.632 175.306,102.595 183.250,103.330 185.577 C 104.065 187.904,105.434 192.113,106.372 194.930 L 108.077 200.052 108.085 206.468 L 108.094 212.885 108.842 211.923 C 110.460 209.841,110.940 201.519,109.994 191.944 C 109.032 182.201,107.167 165.824,105.756 154.727 C 104.917 148.126,104.231 141.858,104.231 140.800 L 104.231 138.876 105.865 138.417 C 109.715 137.335,125.892 137.415,151.346 138.640 C 177.668 139.906,193.523 139.187,200.577 136.405 L 203.654 135.192 201.944 135.070 C 201.004 135.003,196.244 135.243,191.367 135.603 C 180.137 136.431,162.011 136.428,146.154 135.595 C 131.938 134.849,111.948 134.532,108.294 134.996 M307.956 135.420 C 307.840 135.863,307.921 141.878,308.136 148.786 C 308.412 157.645,308.403 163.896,308.106 170.000 C 307.379 184.911,307.402 185.291,308.961 184.136 C 311.799 182.033,311.167 134.615,308.301 134.615 C 308.227 134.615,308.072 134.978,307.956 135.420 M101.117 153.365 C 102.918 160.253,105.742 176.150,106.530 183.846 C 106.758 186.067,107.024 188.404,107.121 189.038 C 107.218 189.673,106.370 187.423,105.236 184.038 C 103.261 178.141,98.182 164.730,95.208 157.557 C 94.431 155.685,93.850 154.113,93.917 154.065 C 93.984 154.016,95.167 153.679,96.546 153.316 C 97.925 152.952,99.310 152.493,99.623 152.295 C 100.540 151.715,100.719 151.843,101.117 153.365 M245.522 160.385 C 245.652 162.394,245.869 165.173,246.004 166.559 L 246.251 169.079 243.029 169.766 C 227.657 173.046,217.308 185.688,217.308 201.188 L 217.308 205.000 216.058 205.025 C 208.550 205.173,203.462 206.119,203.462 207.367 C 203.462 207.958,206.954 208.108,212.115 207.738 C 218.290 207.295,217.726 207.041,218.832 210.756 C 221.842 220.860,230.065 229.611,239.084 232.310 L 240.668 232.784 238.988 235.509 C 237.117 238.544,237.031 238.899,237.946 239.815 C 239.191 241.059,245.769 239.430,245.769 237.877 C 245.769 236.632,244.473 236.316,242.592 237.102 C 240.693 237.895,240.773 237.518,243.156 234.431 L 245.158 231.837 246.041 232.863 C 246.526 233.427,246.923 234.323,246.923 234.854 C 246.923 237.212,247.864 237.726,250.096 236.588 C 251.880 235.678,251.916 235.726,251.956 239.006 C 252.022 244.575,252.749 247.409,253.924 246.683 C 254.320 246.438,254.292 238.375,253.889 236.292 L 253.580 234.700 255.925 233.603 C 259.179 232.079,262.717 230.045,263.768 229.094 L 264.651 228.294 266.232 230.205 C 274.965 240.757,291.196 250.901,304.504 254.124 L 305.739 254.423 305.911 261.731 C 306.205 274.217,308.291 283.017,310.446 280.862 C 310.812 280.496,310.768 279.783,310.244 277.560 C 309.190 273.091,308.092 263.669,308.085 259.038 L 308.078 254.808 314.328 254.787 C 321.287 254.765,324.024 254.227,326.914 252.314 C 329.134 250.844,328.608 250.737,323.269 251.573 C 317.633 252.456,310.050 252.525,305.905 251.732 C 287.817 248.271,262.512 227.946,263.404 217.596 C 263.547 215.937,266.801 217.617,274.808 223.486 C 284.120 230.311,289.308 232.481,292.813 231.016 C 296.331 229.546,295.935 225.311,291.872 220.968 C 288.405 217.262,284.461 216.205,287.542 219.807 C 293.600 226.892,294.157 229.127,289.774 228.763 C 286.992 228.532,282.781 226.308,277.118 222.078 L 276.038 221.271 280.615 218.755 C 283.133 217.371,291.058 213.095,298.227 209.252 C 321.494 196.781,324.217 193.999,318.936 188.094 C 315.508 184.262,312.853 185.002,297.780 193.997 C 292.256 197.293,291.455 197.664,290.953 197.162 C 288.711 194.920,282.890 195.626,275.558 199.029 C 272.403 200.493,271.701 200.668,268.058 200.894 C 265.847 201.031,261.184 201.393,257.696 201.697 C 254.207 202.001,251.323 202.220,251.287 202.183 C 251.251 202.146,251.021 199.346,250.777 195.962 C 250.532 192.577,250.010 186.952,249.616 183.462 C 249.223 179.971,248.784 175.861,248.642 174.327 L 248.383 171.538 251.072 171.538 C 261.774 171.538,270.247 175.985,277.165 185.231 C 281.317 190.780,281.750 191.149,281.406 188.846 C 279.836 178.348,265.696 168.916,251.442 168.860 C 249.015 168.850,248.076 168.712,248.075 168.365 C 248.069 167.221,246.878 160.073,246.488 158.846 C 245.615 156.096,245.280 156.630,245.522 160.385 M154.806 184.834 C 154.005 185.377,151.688 187.164,149.656 188.806 C 144.476 192.990,142.114 194.690,125.577 206.143 C 117.539 211.710,110.119 216.908,109.089 217.693 L 107.216 219.122 104.909 218.403 C 94.520 215.170,82.495 215.084,76.019 218.196 C 65.319 223.338,46.330 246.007,30.224 272.868 C 25.824 280.204,25.296 280.929,24.330 280.945 C 23.327 280.961,23.275 281.050,23.370 282.572 C 23.454 283.925,22.922 285.306,20.038 291.226 C 14.226 303.151,11.538 310.581,11.244 315.538 C 10.992 319.785,11.416 319.681,13.050 315.096 C 15.392 308.525,19.307 298.969,21.656 294.090 L 24.038 289.141 26.671 292.263 C 35.214 302.393,54.112 313.814,58.972 311.783 C 63.419 309.925,58.980 297.658,52.769 294.641 C 49.783 293.190,50.062 294.486,53.881 299.808 C 57.852 305.340,59.764 309.872,56.153 305.191 C 55.247 304.017,52.649 301.277,50.380 299.103 L 46.255 295.150 47.558 292.002 C 48.274 290.271,49.548 287.771,50.388 286.447 C 51.919 284.033,52.394 281.923,51.406 281.923 C 49.711 281.923,43.827 292.679,42.359 298.460 L 41.665 301.193 37.273 296.846 C 33.144 292.760,29.535 288.402,27.689 285.273 L 26.879 283.901 27.727 282.240 C 40.692 256.827,68.759 222.973,79.721 219.527 C 84.487 218.029,98.505 218.726,103.946 220.732 C 104.459 220.921,103.344 221.872,99.330 224.670 C 89.996 231.178,83.410 236.695,81.510 239.597 C 80.905 240.521,80.901 240.521,79.250 239.860 C 77.075 238.990,76.969 239.220,78.788 240.863 C 84.725 246.227,91.816 246.997,104.775 243.684 C 112.904 241.606,113.186 241.588,114.645 243.047 C 117.298 245.700,113.951 248.247,100.962 253.462 C 91.468 257.273,91.520 257.242,86.538 262.090 C 78.483 269.928,72.439 272.974,63.087 273.907 C 60.861 274.129,58.620 274.475,58.109 274.677 L 57.179 275.042 58.004 275.868 C 60.645 278.508,72.187 276.119,79.758 271.367 L 83.051 269.299 86.681 270.389 C 90.212 271.449,100.314 275.165,106.923 277.836 L 110.192 279.156 110.385 283.905 C 110.691 291.465,113.077 290.163,113.077 282.436 C 113.077 279.914,112.222 279.752,120.627 283.871 C 127.708 287.341,130.162 288.069,131.218 287.013 C 132.562 285.669,109.034 274.883,91.502 268.807 L 87.812 267.528 89.838 265.140 C 90.953 263.826,92.042 262.419,92.259 262.013 C 92.476 261.608,94.872 260.135,97.583 258.739 L 102.513 256.202 111.721 259.268 C 116.786 260.954,121.175 262.284,121.476 262.224 C 121.783 262.163,122.821 260.013,123.850 257.308 C 124.855 254.663,127.169 248.894,128.991 244.487 C 132.549 235.881,135.423 227.686,136.199 223.928 C 137.413 218.049,134.972 219.049,114.136 232.967 C 103.645 239.975,102.954 240.310,96.731 241.401 C 92.287 242.180,84.750 242.302,83.545 241.614 C 82.684 241.123,82.719 241.072,85.275 239.086 C 86.710 237.972,89.822 235.503,92.190 233.600 C 94.559 231.697,99.145 228.255,102.383 225.952 C 117.137 215.456,120.260 213.270,127.115 208.637 C 147.205 195.062,158.462 186.336,158.462 184.337 C 158.462 183.501,156.346 183.789,154.806 184.834 M156.208 188.464 C 155.822 189.100,155.116 191.394,154.640 193.560 C 150.628 211.825,149.132 217.548,148.421 217.351 C 146.520 216.824,146.258 216.868,146.021 217.754 C 145.784 218.644,145.957 218.880,147.556 219.846 C 148.229 220.251,148.221 220.415,147.362 223.980 C 146.405 227.948,146.348 228.011,144.562 227.088 C 143.188 226.377,142.495 226.548,142.202 227.670 C 142.027 228.338,142.317 228.648,143.838 229.419 L 145.687 230.356 144.725 234.191 C 143.765 238.019,143.762 238.026,142.779 237.652 C 141.043 236.992,140.437 239.165,142.140 239.941 C 142.812 240.248,143.064 240.604,142.928 241.061 C 142.819 241.429,142.361 243.202,141.909 245.000 C 140.928 248.911,141.192 248.599,139.476 247.882 C 138.232 247.362,136.483 248.661,137.393 249.428 C 137.452 249.477,138.063 249.804,138.750 250.153 C 139.438 250.503,140.001 251.087,140.001 251.452 C 140.002 252.000,138.498 257.637,138.257 257.992 C 138.216 258.050,137.722 257.923,137.157 257.708 C 136.240 257.359,136.090 257.425,135.749 258.322 C 135.376 259.303,136.039 260.335,137.067 260.372 C 137.447 260.386,137.222 261.739,136.328 264.815 L 135.718 266.912 134.350 266.341 C 131.616 265.198,130.548 267.177,133.183 268.506 C 134.076 268.957,134.848 269.359,134.897 269.399 C 135.012 269.495,133.535 274.670,133.335 274.870 C 133.252 274.953,132.749 274.856,132.218 274.654 C 130.203 273.888,129.899 276.469,131.906 277.301 L 133.060 277.779 132.822 280.587 C 132.468 284.776,132.668 284.942,135.167 282.541 C 137.226 280.562,137.335 280.353,138.626 275.865 C 141.845 264.683,151.674 224.267,155.952 204.623 C 158.624 192.356,158.691 191.923,157.924 191.923 C 157.415 191.923,157.357 191.560,157.561 189.615 C 157.835 186.987,157.355 186.578,156.208 188.464 M314.627 189.643 C 315.653 192.120,313.979 193.790,304.808 199.441 C 298.628 203.248,283.333 211.964,277.111 215.225 L 271.721 218.049 269.880 216.851 C 268.867 216.192,268.177 215.526,268.346 215.371 C 268.755 214.995,285.750 204.403,294.231 199.239 C 305.300 192.498,312.309 188.666,313.896 188.489 C 314.029 188.474,314.358 188.993,314.627 189.643 M288.560 198.783 C 289.089 198.992,288.629 199.425,286.445 200.772 C 284.910 201.719,279.504 205.135,274.433 208.362 C 266.810 213.214,264.965 214.231,263.788 214.231 C 262.372 214.231,260.769 215.547,260.769 216.709 C 260.769 217.143,252.753 222.908,252.530 222.634 C 252.370 222.436,251.534 208.980,251.536 206.635 C 251.538 204.693,251.579 204.615,252.596 204.596 C 253.178 204.586,256.337 204.346,259.615 204.064 C 262.894 203.781,265.635 203.603,265.706 203.667 C 265.777 203.731,264.148 204.693,262.085 205.805 C 255.640 209.280,252.310 214.079,254.692 216.462 C 255.446 217.215,255.600 217.045,256.696 214.251 C 257.273 212.781,258.261 211.074,258.891 210.457 C 260.794 208.597,277.330 200.648,283.077 198.832 C 284.272 198.454,287.653 198.424,288.560 198.783 M249.239 206.250 C 249.244 206.938,249.498 210.615,249.805 214.423 C 250.645 224.852,250.842 223.782,247.684 225.940 C 246.199 226.955,244.305 228.556,243.476 229.497 L 241.970 231.209 237.812 229.077 C 229.413 224.771,224.492 219.274,221.707 211.085 C 220.268 206.853,219.429 207.328,229.808 206.502 C 232.981 206.250,237.913 205.831,240.769 205.572 C 249.387 204.791,249.229 204.778,249.239 206.250 M306.538 207.358 C 306.538 207.966,307.974 209.628,311.294 212.864 C 316.035 217.487,318.948 221.122,324.167 228.929 C 331.311 239.614,338.040 246.326,346.088 250.791 C 347.599 251.629,347.732 251.820,347.526 252.852 C 346.897 255.995,341.124 266.089,337.182 270.939 L 336.262 272.071 335.291 270.555 C 334.757 269.721,332.958 266.728,331.294 263.904 C 328.174 258.609,325.945 255.769,324.908 255.769 C 323.687 255.769,323.960 256.903,325.781 259.402 C 328.345 262.918,328.364 263.053,326.684 265.658 C 325.895 266.883,324.508 269.354,323.601 271.149 L 321.953 274.414 322.015 271.342 C 322.095 267.429,321.448 265.941,320.767 268.470 C 317.838 279.348,318.929 285.000,323.958 285.000 C 330.372 285.000,346.093 267.268,349.636 256.038 C 350.116 254.515,350.549 253.216,350.598 253.150 C 350.795 252.886,362.274 258.870,371.708 264.156 C 384.018 271.052,385.528 271.809,387.623 272.130 C 393.468 273.025,379.196 264.470,352.115 250.845 C 340.047 244.772,336.027 241.000,325.808 226.154 C 317.487 214.064,311.854 208.126,307.404 206.754 C 306.683 206.531,306.538 206.632,306.538 207.358 M260.002 222.427 C 260.004 222.890,260.251 223.741,260.552 224.319 L 261.100 225.368 256.992 227.820 C 254.733 229.168,252.145 230.677,251.241 231.173 L 249.598 232.075 248.221 230.657 L 246.844 229.240 248.064 228.562 C 248.734 228.190,251.564 226.396,254.353 224.578 C 259.591 221.161,259.998 221.006,260.002 222.427 M133.228 224.904 C 132.583 227.659,129.644 235.798,127.271 241.404 C 125.824 244.821,123.765 249.840,122.696 252.558 C 121.626 255.276,120.589 257.880,120.393 258.345 L 120.035 259.190 115.594 257.698 C 113.152 256.878,109.830 255.912,108.213 255.552 L 105.272 254.898 109.078 253.023 C 115.578 249.823,118.074 247.489,118.074 244.615 C 118.074 240.860,114.711 238.999,109.681 239.971 C 108.765 240.148,108.159 240.160,108.334 239.999 C 109.234 239.170,121.585 230.860,125.769 228.267 C 128.413 226.629,131.096 224.967,131.731 224.574 C 133.286 223.611,133.519 223.662,133.228 224.904 M200.615 228.297 C 197.222 228.868,196.727 229.162,197.114 230.379 C 197.363 231.166,197.535 231.203,199.748 230.952 C 203.495 230.527,205.070 230.215,205.034 229.904 C 205.015 229.745,205.000 229.183,205.000 228.654 C 205.000 227.553,205.027 227.555,200.615 228.297 M191.731 229.108 C 191.308 229.153,189.793 229.299,188.365 229.433 C 185.808 229.673,185.769 229.694,185.769 230.800 C 185.769 231.865,185.853 231.923,187.404 231.920 C 191.212 231.912,193.077 231.484,193.071 230.620 C 193.063 229.495,192.635 229.013,191.731 229.108 M177.958 229.508 C 177.044 229.646,176.896 229.830,176.996 230.701 C 177.112 231.700,177.199 231.734,179.904 231.844 L 182.692 231.957 182.692 230.594 L 182.692 229.231 180.865 229.288 C 179.861 229.320,178.552 229.419,177.958 229.508 M221.538 245.554 C 221.538 246.811,221.602 246.833,225.578 246.973 L 229.038 247.095 229.159 245.855 L 229.280 244.615 225.409 244.615 C 221.562 244.615,221.538 244.621,221.538 245.554 M213.269 245.628 C 211.365 245.881,209.505 246.103,209.135 246.121 C 208.644 246.145,208.462 246.480,208.462 247.361 L 208.462 248.568 211.442 248.304 C 216.734 247.837,217.308 247.688,217.302 246.778 C 217.291 245.247,216.924 245.142,213.269 245.628 M202.115 247.298 C 201.269 247.463,199.755 247.716,198.750 247.861 C 197.156 248.090,196.923 248.241,196.923 249.039 C 196.923 250.393,197.352 250.483,201.374 249.977 L 205.041 249.515 204.924 248.318 C 204.794 246.984,204.423 246.850,202.115 247.298 M177.958 248.739 C 177.044 248.877,176.896 249.061,176.996 249.932 C 177.112 250.931,177.199 250.965,179.904 251.075 L 182.692 251.188 182.692 249.825 L 182.692 248.462 180.865 248.519 C 179.861 248.551,178.552 248.650,177.958 248.739 M187.019 248.740 C 185.912 248.877,185.769 249.031,185.769 250.082 L 185.769 251.269 189.295 251.019 C 193.308 250.734,193.254 250.757,192.923 249.441 C 192.668 248.422,191.091 248.234,187.019 248.740 M357.622 267.202 C 357.298 267.578,356.570 268.910,356.006 270.163 C 353.213 276.372,346.062 284.649,340.929 287.615 C 336.765 290.022,336.079 291.218,339.444 290.205 C 345.238 288.462,353.045 280.636,357.108 272.500 C 359.307 268.097,359.618 264.897,357.622 267.202 M304.615 285.616 C 291.938 289.135,280.086 289.491,243.269 287.460 C 226.969 286.561,218.558 286.852,204.231 288.813 C 157.214 295.249,133.734 295.929,117.709 291.320 C 113.189 290.020,112.785 290.048,113.881 291.587 C 115.907 294.433,126.196 297.276,134.552 297.301 L 136.989 297.308 137.822 299.302 C 141.447 307.987,140.260 307.258,148.077 305.603 C 154.146 304.318,172.656 301.387,178.364 300.807 C 189.498 299.676,196.238 297.332,188.409 297.314 C 182.190 297.299,153.915 301.026,146.330 302.860 L 142.661 303.747 142.088 302.375 C 141.772 301.620,141.584 300.820,141.670 300.597 C 141.864 300.092,161.526 297.118,169.808 296.342 C 177.791 295.594,188.371 294.239,203.654 292.009 L 215.962 290.213 231.346 290.231 C 239.808 290.240,249.413 290.459,252.692 290.716 C 279.040 292.784,300.003 291.167,306.715 286.549 C 309.868 284.380,309.561 284.244,304.615 285.616 M324.615 288.032 C 324.615 289.779,329.261 293.477,336.154 297.219 C 343.723 301.327,366.924 309.473,370.145 309.153 L 371.346 309.033 370.078 308.221 C 369.380 307.774,364.361 305.804,358.924 303.841 C 340.933 297.348,334.545 294.211,328.075 288.688 C 325.631 286.602,324.615 286.409,324.615 288.032 M56.914 314.063 C 56.707 314.606,56.538 315.306,56.538 315.618 C 56.538 318.150,53.127 330.839,51.300 335.106 C 49.806 338.593,49.586 340.136,50.458 341.008 C 52.419 342.968,60.223 318.619,59.086 314.090 C 58.747 312.739,57.423 312.723,56.914 314.063 " stroke="none" fill="#000000" fill-rule="evenodd"></path></g></svg>